<svg xmlns="http://www.w3.org/2000/svg" width="29.417" height="22.88" viewBox="0 0 29.417 22.88">
  <path id="Icon_awesome-address-card" data-name="Icon awesome-address-card" d="M26.965,2.25H2.451A2.452,2.452,0,0,0,0,4.7V22.678A2.452,2.452,0,0,0,2.451,25.13H26.965a2.452,2.452,0,0,0,2.451-2.451V4.7A2.452,2.452,0,0,0,26.965,2.25ZM8.988,7.153A3.269,3.269,0,1,1,5.72,10.421,3.272,3.272,0,0,1,8.988,7.153Zm5.72,12.093a1.071,1.071,0,0,1-1.144.981H4.412a1.071,1.071,0,0,1-1.144-.981v-.981A3.216,3.216,0,0,1,6.7,15.324h.255a5.26,5.26,0,0,0,4.065,0h.255a3.216,3.216,0,0,1,3.432,2.942Zm11.44-2.7a.41.41,0,0,1-.409.409H18.385a.41.41,0,0,1-.409-.409v-.817a.41.41,0,0,1,.409-.409h7.354a.41.41,0,0,1,.409.409Zm0-3.269a.41.41,0,0,1-.409.409H18.385a.41.41,0,0,1-.409-.409v-.817a.41.41,0,0,1,.409-.409h7.354a.41.41,0,0,1,.409.409Zm0-3.269a.41.41,0,0,1-.409.409H18.385a.41.41,0,0,1-.409-.409V9.2a.41.41,0,0,1,.409-.409h7.354a.41.41,0,0,1,.409.409Z" transform="translate(0 -2.25)" fill="#2c0543"/>
</svg>
