<svg xmlns="http://www.w3.org/2000/svg" width="32" height="32" viewBox="0 0 32 32">
  <g id="noun_Affiliate_1071518" transform="translate(-20 -20)">
    <path id="Path_660" data-name="Path 660" d="M27.467,36A8.533,8.533,0,1,0,36,27.467,8.533,8.533,0,0,0,27.467,36Zm11.2-1.6a2.655,2.655,0,0,1-1.39,2.328,4.273,4.273,0,0,1,2.54,2.176,4.788,4.788,0,0,1-7.631,0,4.272,4.272,0,0,1,2.54-2.176A2.662,2.662,0,1,1,38.667,34.4ZM52,36a2.133,2.133,0,1,1-2.133-2.133A2.133,2.133,0,0,1,52,36ZM33.867,22.133A2.133,2.133,0,1,1,36,24.267,2.133,2.133,0,0,1,33.867,22.133Zm-11.733,16A2.133,2.133,0,1,1,24.267,36,2.133,2.133,0,0,1,22.133,38.133Zm16,11.733A2.133,2.133,0,1,1,36,47.733,2.133,2.133,0,0,1,38.133,49.867ZM22.044,31.487a14.7,14.7,0,0,1,9.443-9.444.8.8,0,0,1,.492,1.523,13.1,13.1,0,0,0-8.413,8.412.8.8,0,1,1-1.523-.492Zm17.461-8.928a.8.8,0,0,1,1.007-.516,14.7,14.7,0,0,1,9.444,9.444.8.8,0,0,1-1.523.492,13.093,13.093,0,0,0-8.412-8.412A.8.8,0,0,1,39.505,22.559ZM32.494,49.441a.8.8,0,0,1-1.007.516,14.7,14.7,0,0,1-9.443-9.444.8.8,0,1,1,1.523-.492,13.1,13.1,0,0,0,8.413,8.412A.8.8,0,0,1,32.494,49.441Zm17.462-8.928a14.7,14.7,0,0,1-9.444,9.444.8.8,0,0,1-.492-1.523,13.1,13.1,0,0,0,8.413-8.412.8.8,0,1,1,1.523.492Z" fill="#2c0543"/>
  </g>
</svg>
