<svg xmlns="http://www.w3.org/2000/svg" xmlns:xlink="http://www.w3.org/1999/xlink" width="367" height="15" viewBox="0 0 367 15"><defs><clipPath id="a"><rect width="26" height="12" transform="translate(-0.081 -2.031)" fill="#fff"/></clipPath><linearGradient id="b" x1="0.549" y1="0.279" x2="0.252" y2="0.758" gradientUnits="objectBoundingBox"><stop offset="0" stop-color="#ef2131"/><stop offset="1" stop-color="#fecf2c"/></linearGradient><linearGradient id="c" x1="0.459" y1="0.936" x2="0.744" y2="0.467" gradientUnits="objectBoundingBox"><stop offset="0" stop-color="#78f6d8"/><stop offset="0.266" stop-color="#77d1f6"/><stop offset="0.554" stop-color="#70a4f3"/><stop offset="1" stop-color="#661eec"/></linearGradient><linearGradient id="d" x1="-0.107" y1="0.564" x2="1.097" y2="0.472" gradientUnits="objectBoundingBox"><stop offset="0" stop-color="#21bf73"/><stop offset="0.521" stop-color="#d6d03f"/><stop offset="1" stop-color="#fe9801"/></linearGradient><linearGradient id="e" x1="-0.098" y1="0.519" x2="1.105" y2="0.426" xlink:href="#d"/><linearGradient id="f" x1="0.012" y1="1.067" x2="0.984" y2="0.02" xlink:href="#d"/><clipPath id="h"><rect width="367" height="15"/></clipPath></defs><g id="g" clip-path="url(#h)"><g transform="translate(-2717 -12548)"><g transform="translate(2718 12549.664)"><path d="M8.958,1.862A2.138,2.138,0,0,0,9.452.336a2.129,2.129,0,0,0-1.411.729,2,2,0,0,0-.506,1.467A1.777,1.777,0,0,0,8.958,1.862Z" transform="translate(-3.674)" fill="#22272f"/><path d="M5.773,4.831c-.786-.047-1.454.445-1.829.445s-.95-.421-1.571-.41A2.318,2.318,0,0,0,.4,6.06C-.442,7.512.18,9.666,1,10.849c.4.585.879,1.229,1.512,1.206.6-.023.833-.387,1.56-.387s.938.387,1.571.375c.657-.012,1.067-.585,1.466-1.171a5.191,5.191,0,0,0,.656-1.346A2.127,2.127,0,0,1,6.488,7.594,2.167,2.167,0,0,1,7.52,5.779,2.248,2.248,0,0,0,5.773,4.831Z" transform="translate(0 -2.193)" fill="#22272f"/><path d="M21.5,1.643a2.758,2.758,0,0,1,2.9,2.885,2.789,2.789,0,0,1-2.94,2.9H19.566v3H18.2V1.643h3.3ZM19.566,6.281h1.567A1.646,1.646,0,0,0,23,4.534a1.64,1.64,0,0,0-1.86-1.741H19.566Z" transform="translate(-8.886 -0.638)" fill="#22272f"/><path d="M31,10.769c0-1.12.86-1.808,2.385-1.893l1.756-.1V8.279c0-.712-.482-1.138-1.287-1.138a1.228,1.228,0,0,0-1.354.937H31.261c.073-1.156,1.061-2.008,2.647-2.008,1.555,0,2.549.822,2.549,2.106v4.412H35.195V11.535h-.03A2.293,2.293,0,0,1,33.14,12.7,1.943,1.943,0,0,1,31,10.769Zm4.141-.578V9.685l-1.58.1c-.787.055-1.232.4-1.232.949s.464.925,1.171.925A1.537,1.537,0,0,0,35.146,10.191Z" transform="translate(-15.138 -2.8)" fill="#22272f"/><path d="M43.383,15.053V13.988a2.443,2.443,0,0,0,.427.024,1.068,1.068,0,0,0,1.14-.913c0-.012.116-.39.116-.4L42.749,6.295h1.427L45.8,11.5h.024l1.622-5.21h1.391l-2.4,6.737c-.549,1.552-1.183,2.051-2.513,2.051A5.113,5.113,0,0,1,43.383,15.053Z" transform="translate(-20.872 -2.909)" fill="#22272f"/></g><g transform="translate(2935.416 12552)"><path d="M16.4.936H15.014V8.678H16.4Z" transform="translate(-8.87 -0.553)" fill="#22272f"/><path d="M22.661,7.324H21.279v5.128h1.382Z" transform="translate(-12.572 -4.327)" fill="#22272f"/><path d="M32.556,8.678,30.48,5.964,32.39,3.55H30.758L28.927,5.892V.936H27.545V8.678h1.382V6.046l1.831,2.633Z" transform="translate(-16.273 -0.553)" fill="#22272f"/><path d="M2.622,3.492a2.607,2.607,0,0,0-1.24.312V.936H0V6.114A2.623,2.623,0,1,0,2.622,3.492Zm0,3.863A1.241,1.241,0,1,1,3.5,6.991,1.241,1.241,0,0,1,2.622,7.355Z" transform="translate(0 -0.553)" fill="#22272f"/><path d="M7.925,2.464A1.232,1.232,0,1,0,6.693,1.232,1.232,1.232,0,0,0,7.925,2.464Z" transform="translate(-3.954)" fill="#cc3d3b"/></g><g transform="translate(2809.5 12551.294)"><path d="M4.427,9.56A4.427,4.427,0,1,0,0,5.133,4.427,4.427,0,0,0,4.427,9.56Z" fill="#e61c24"/><path d="M18.451,9.56a4.427,4.427,0,1,0-4.427-4.427A4.427,4.427,0,0,0,18.451,9.56Z" transform="translate(-8.527)" fill="#f99f1b"/><path d="M15.7,3.157a4.419,4.419,0,0,0,0,6.932,4.418,4.418,0,0,0,0-6.932Z" transform="translate(-8.528 -1.49)" fill="#f26622"/></g><g transform="translate(2765 12551.975)"><path d="M16.035,8.053h2.124l1.329-7.8H17.364Z" transform="translate(-6.789 -0.098)" fill="#1a1876"/><path d="M26.313,3.289c-.742-.361-1.2-.6-1.193-.966,0-.326.385-.671,1.221-.671a3.837,3.837,0,0,1,1.78.388L28.41.351a5.491,5.491,0,0,0-1.9-.326c-2.1,0-3.582,1.058-3.591,2.572-.011,1.12,1.058,1.745,1.862,2.117.827.382,1.106.625,1.1.966-.006.523-.66.762-1.272.762a4.652,4.652,0,0,1-2.274-.533l-.3,1.745A6.712,6.712,0,0,0,24.4,8.07c2.234,0,3.684-1.045,3.7-2.663C28.1,4.52,27.539,3.845,26.313,3.289Z" transform="translate(-9.328 0)" fill="#1a1876"/><path d="M38.193.264H36.551A1.058,1.058,0,0,0,35.439.91L32.283,8.052h2.231s.365-.961.447-1.171h2.721c.064.273.259,1.168.259,1.168h1.972Zm-2.62,5.025c.088-.225.955-2.452,1.128-2.923.287,1.343.007.04.635,2.923Z" transform="translate(-13.667 -0.097)" fill="#1a1876"/><path d="M7.464.259,5.383,5.575l-.221-1.08L4.417.913A.89.89,0,0,0,3.453.254H.027L0,.417a8.926,8.926,0,0,1,2.232.856L4.121,8.043H6.369L9.714.262Z" transform="translate(0 -0.094)" fill="#1a1876"/></g><g transform="translate(2843.518 12552)"><path d="M35.293,7.129h-1.4L35.841,0h1.4Z" transform="translate(-15.22)" fill="#22272f"/><path d="M26.857.243a.518.518,0,0,0-.451-.2H18.685l-.382,1.4h7.024l-.409,1.492H19.3v0h-1.4L16.729,7.177h1.4l.782-2.855h6.316a.891.891,0,0,0,.558-.2.947.947,0,0,0,.344-.5L26.916.758A.585.585,0,0,0,26.857.243Z" transform="translate(-7.513 -0.017)" fill="#22272f"/><path d="M8.4,6.7a.646.646,0,0,1-.622.478H.533a.5.5,0,0,1-.441-.2.572.572,0,0,1-.062-.5L1.8.038H3.2L1.624,5.783H7.246L8.824.038h1.405Z" transform="translate(0 -0.017)" fill="#22272f"/><path d="M42.786.024,44.564,3.6,40.827,7.171Z" transform="translate(-18.336 -0.011)" fill="#27803b"/><path d="M40.523.024,42.3,3.6,38.561,7.171Z" transform="translate(-17.318 -0.011)" fill="#e9661c"/></g><g transform="translate(2971.791 12552.375)"><path d="M37.888,5.069a2.24,2.24,0,0,1,.77.116,3.714,3.714,0,0,1,.494.214.312.312,0,0,1,.178.214.454.454,0,0,1-.044.285l-.089.161a.311.311,0,0,1-.2.187A.492.492,0,0,1,38.7,6.2a3.906,3.906,0,0,0-.365-.147,1.483,1.483,0,0,0-.5-.076.769.769,0,0,0-.454.116.383.383,0,0,0-.16.33.356.356,0,0,0,.165.3,1.7,1.7,0,0,0,.418.2l.543.192a2.678,2.678,0,0,1,.543.263,1.374,1.374,0,0,1,.418.41,1.125,1.125,0,0,1,.165.632,1.258,1.258,0,0,1-.467,1,1.712,1.712,0,0,1-.547.294,2.256,2.256,0,0,1-.712.107,2.387,2.387,0,0,1-.93-.16,3.345,3.345,0,0,1-.583-.3.308.308,0,0,1-.169-.223.424.424,0,0,1,.08-.285L36.25,8.7a.332.332,0,0,1,.218-.16.489.489,0,0,1,.29.071c.107.06.245.126.414.2a1.488,1.488,0,0,0,.6.111.766.766,0,0,0,.463-.125.4.4,0,0,0,.169-.338.344.344,0,0,0-.164-.3,1.919,1.919,0,0,0-.419-.2l-.543-.2a2.86,2.86,0,0,1-.543-.267,1.366,1.366,0,0,1-.418-.41,1.141,1.141,0,0,1-.165-.642,1.216,1.216,0,0,1,.511-1.016,1.762,1.762,0,0,1,.552-.258A2.474,2.474,0,0,1,37.888,5.069Zm-13.23,0a2.244,2.244,0,0,1,.77.116,3.7,3.7,0,0,1,.494.214.314.314,0,0,1,.178.214.455.455,0,0,1-.045.285l-.089.161a.312.312,0,0,1-.2.187.494.494,0,0,1-.294-.044,3.906,3.906,0,0,0-.365-.147,1.481,1.481,0,0,0-.5-.076.768.768,0,0,0-.453.116.383.383,0,0,0-.16.33.355.355,0,0,0,.165.3,1.693,1.693,0,0,0,.418.2l.543.192a2.678,2.678,0,0,1,.543.263,1.367,1.367,0,0,1,.418.41,1.126,1.126,0,0,1,.165.632,1.29,1.29,0,0,1-.12.558,1.273,1.273,0,0,1-.347.441,1.7,1.7,0,0,1-.547.294,2.249,2.249,0,0,1-.712.107,2.39,2.39,0,0,1-.93-.16,3.369,3.369,0,0,1-.583-.3.31.31,0,0,1-.169-.223.424.424,0,0,1,.08-.285L23.02,8.7a.334.334,0,0,1,.219-.16.487.487,0,0,1,.289.071c.107.06.245.126.414.2a1.489,1.489,0,0,0,.6.111.763.763,0,0,0,.463-.125.4.4,0,0,0,.169-.338.343.343,0,0,0-.165-.3,1.913,1.913,0,0,0-.418-.2l-.543-.2a2.879,2.879,0,0,1-.543-.267,1.374,1.374,0,0,1-.418-.41,1.141,1.141,0,0,1-.165-.642,1.214,1.214,0,0,1,.512-1.016,1.749,1.749,0,0,1,.552-.258A2.469,2.469,0,0,1,24.658,5.069ZM40.887,3.394a.331.331,0,0,1,.374.374V5.6c0,.059,0,.111,0,.156a1.179,1.179,0,0,1-.013.12.73.73,0,0,0-.009.107h.018a1.5,1.5,0,0,1,.227-.325,1.789,1.789,0,0,1,1.348-.593,1.591,1.591,0,0,1,1.17.41,1.8,1.8,0,0,1,.414,1.32V9.347a.331.331,0,0,1-.373.375h-.383a.331.331,0,0,1-.374-.375V7.03a1.372,1.372,0,0,0-.142-.673.594.594,0,0,0-.569-.254,1.251,1.251,0,0,0-.539.116,1.209,1.209,0,0,0-.414.317,1.454,1.454,0,0,0-.263.476,1.872,1.872,0,0,0-.093.6V9.347a.331.331,0,0,1-.374.375H40.5a.331.331,0,0,1-.373-.375V3.768a.33.33,0,0,1,.373-.374ZM34.974,5.177a.327.327,0,0,1,.365.374v3.8a.327.327,0,0,1-.365.375h-.392a.327.327,0,0,1-.365-.375v-3.8a.327.327,0,0,1,.365-.374Zm-7.552,0a.367.367,0,0,1,.4.329l.73,2.657c.012.065.022.124.031.178s.019.1.031.151.021.1.027.152h.018c.006-.047.015-.1.027-.152s.022-.1.031-.151a1.724,1.724,0,0,1,.04-.178l.765-2.657a.37.37,0,0,1,.409-.321h.338a.385.385,0,0,1,.41.321l.756,2.657c.018.065.031.124.04.178s.019.1.031.151.02.1.027.152h.018c.007-.051.016-.1.027-.152s.022-.1.031-.151.022-.113.04-.178l.722-2.657a.386.386,0,0,1,.409-.329h.409a.322.322,0,0,1,.285.116.345.345,0,0,1,.027.3L32.335,9.41a.4.4,0,0,1-.418.312h-.6A.389.389,0,0,1,30.9,9.4l-.686-2.273c-.018-.059-.033-.118-.044-.178s-.023-.107-.036-.161-.02-.1-.027-.152h-.018c-.013.051-.025.1-.036.152s-.024.1-.036.161-.027.119-.044.178L29.29,9.4a.384.384,0,0,1-.409.321h-.614a.39.39,0,0,1-.409-.312L26.683,5.6a.338.338,0,0,1,.031-.3.324.324,0,0,1,.28-.116Z" transform="translate(-10.237 -3.241)" fill="#22272f"/><path d="M5.145,11.084a5.375,5.375,0,0,0,5.772-8.967l-1.512,1.8a4.2,4.2,0,0,1,.517,5.914,4.266,4.266,0,0,1-4.777,1.252" transform="translate(-3.321 -2.233)" fill-rule="evenodd" fill="url(#b)"/><path d="M7.692.523A5.375,5.375,0,0,0,1.92,9.491l1.512-1.8a4.2,4.2,0,0,1-.517-5.914A4.266,4.266,0,0,1,7.692.523" transform="translate(-1.234 -1.375)" fill-rule="evenodd" fill="url(#c)"/></g><g transform="translate(3071.074 12550.557)"><path d="M17.5,6a6.006,6.006,0,0,0-6-6,.5.5,0,0,0,0,1,5,5,0,0,1,3.871,8.164l-1.2-1.2-.51,3.575,3.574-.511L16.078,9.871A5.952,5.952,0,0,0,17.5,6Z" transform="translate(-6.057 -0.557)" fill="url(#d)"/><path d="M6,11.459A5,5,0,0,1,2.128,3.3l1.2,1.2L3.839.921.265,1.432,1.421,2.588A6,6,0,0,0,6,12.459a.5.5,0,1,0,0-1Z" transform="translate(-0.557 -1.017)" fill="url(#e)"/><path d="M12.062,9.678a1.3,1.3,0,0,1-.45,1.015,2.291,2.291,0,0,1-1.3.493v.921H9.747v-.9a4.383,4.383,0,0,1-1.729-.322v-.9a4.337,4.337,0,0,0,.854.3,3.858,3.858,0,0,0,.875.125V8.828L9.392,8.7a2.516,2.516,0,0,1-1.018-.639,1.359,1.359,0,0,1-.322-.919,1.195,1.195,0,0,1,.457-.965,2.262,2.262,0,0,1,1.239-.457V5h.565v.7a4.682,4.682,0,0,1,1.636.348l-.311.778a4.572,4.572,0,0,0-1.326-.314V8.06l.323.123a2.945,2.945,0,0,1,1.117.654A1.211,1.211,0,0,1,12.062,9.678ZM9.05,7.129a.565.565,0,0,0,.152.4,1.527,1.527,0,0,0,.546.319V6.531a.991.991,0,0,0-.519.208.5.5,0,0,0-.18.39ZM11.06,9.741a.528.528,0,0,0-.172-.406,1.768,1.768,0,0,0-.576-.308v1.355Q11.06,10.268,11.06,9.741Z" transform="translate(-4.597 -3.111)" fill="#22272f"/></g><g transform="translate(3025.737 12550)"><path d="M22.8,13.729h-.382V10.667h-.766v3.062H20.125V10.667h-.766v3.062H17.828V10.667h-.766v3.062H15.531V10.667h-.766v3.062h-.382a.383.383,0,1,0,0,.765H22.8a.383.383,0,1,0,0-.765Z" transform="translate(-5.962 -4.542)" fill="#22272f"/><path d="M22.987,4.343l-4.211-2.3a.384.384,0,0,0-.366,0L14.2,4.343a.384.384,0,0,0-.2.336V5.828a.383.383,0,0,0,.383.382H22.8a.383.383,0,0,0,.383-.382V4.68A.384.384,0,0,0,22.987,4.343Zm-4.394.719a.765.765,0,1,1,.765-.765A.765.765,0,0,1,18.593,5.062Z" transform="translate(-5.962 -0.852)" fill="#22272f"/><path d="M4,3.8V2.913a1.5,1.5,0,1,0-1,0V4a.5.5,0,0,0,.146.353L4.5,5.71V11.5a.5.5,0,1,0,1,0v-6a.5.5,0,0,0-.146-.353Zm18.267-.884V4a.5.5,0,0,1-.146.353L20.766,5.71V11.5a.5.5,0,1,1-1,0v-6a.5.5,0,0,1,.146-.353L21.265,3.8V2.913a1.5,1.5,0,1,1,1,0Zm2.782,2.309a1.5,1.5,0,0,1-.784,2.188V8.5a.5.5,0,0,1-.146.353l-1.353,1.353V11.5a.5.5,0,1,1-1,0V10a.5.5,0,0,1,.146-.353l1.353-1.353V7.41a1.5,1.5,0,1,1,1.783-2.188ZM2,7.41v.885L3.352,9.648A.5.5,0,0,1,3.5,10v1.5a.5.5,0,1,1-1,0V10.207L1.146,8.855A.5.5,0,0,1,1,8.5V7.41a1.5,1.5,0,1,1,1,0Z" transform="translate(0)" fill-rule="evenodd" fill="url(#f)"/></g></g><path d="M24.931,5.7V8.72h-.951V1.271H26.5a2.267,2.267,0,0,1,1.632.645,2.077,2.077,0,0,1,.681,1.572,2.071,2.071,0,0,1-.681,1.582A2.26,2.26,0,0,1,26.5,5.7Zm0-3.516v2.6h1.593a1.248,1.248,0,0,0,.94-.385,1.276,1.276,0,0,0,.025-1.8c-.009-.009-.016-.017-.025-.025a1.235,1.235,0,0,0-.94-.4ZM31,3.457a2.346,2.346,0,0,1,1.663.567,2.02,2.02,0,0,1,.609,1.555V8.72h-.909V8.012h-.041a1.812,1.812,0,0,1-1.57.874,2.029,2.029,0,0,1-1.4-.5,1.6,1.6,0,0,1-.563-1.248,1.518,1.518,0,0,1,.594-1.258,2.491,2.491,0,0,1,1.585-.468,2.794,2.794,0,0,1,1.393.312V5.5a1.093,1.093,0,0,0-.392-.847,1.339,1.339,0,0,0-.917-.348,1.453,1.453,0,0,0-1.26.676l-.836-.531A2.32,2.32,0,0,1,31,3.457Zm-1.23,3.7a.768.768,0,0,0,.315.624,1.154,1.154,0,0,0,.738.25A1.512,1.512,0,0,0,31.9,7.587a1.4,1.4,0,0,0,.472-1.051,1.931,1.931,0,0,0-1.239-.357,1.6,1.6,0,0,0-.966.281A.843.843,0,0,0,29.773,7.16Zm8.717-3.537-3.172,7.344h-.981L35.515,8.4,33.429,3.624h1.032l1.508,3.662h.02l1.467-3.662Z" transform="translate(160.322 2.356)" fill="#585c62"/><path d="M13.162,8.366a5.122,5.122,0,0,0-.073-.871H9.082V9.144h2.294a1.98,1.98,0,0,1-.848,1.3v1.07H11.9A4.2,4.2,0,0,0,13.162,8.366Z" transform="translate(168.251 -0.957)" fill="#4285f4"/><path d="M4.763,14.361a4.045,4.045,0,0,0,2.816-1.033l-1.37-1.07A2.568,2.568,0,0,1,2.378,10.9H.968V12A4.244,4.244,0,0,0,4.763,14.361Z" transform="translate(172.57 -2.769)" fill="#34a853"/><path d="M1.863,7.782a2.582,2.582,0,0,1,0-1.638v-1.1H.453a4.307,4.307,0,0,0,0,3.844Z" transform="translate(173.085 0.35)" fill="#fbbc04"/><path d="M4.763,1.694a2.3,2.3,0,0,1,1.629.642L7.606,1.115A4.071,4.071,0,0,0,4.763,0a4.246,4.246,0,0,0-3.8,2.358l1.411,1.1A2.543,2.543,0,0,1,4.763,1.694Z" transform="translate(172.57 3.033)" fill="#ea4335"/></g></svg>