<svg xmlns="http://www.w3.org/2000/svg" xmlns:xlink="http://www.w3.org/1999/xlink" width="40" height="40" viewBox="0 0 40 40">
  <defs>
    <clipPath id="clip-bhimupi">
      <rect width="40" height="40"/>
    </clipPath>
  </defs>
  <g id="bhimupi" clip-path="url(#clip-bhimupi)">
    <g id="bhim-upi" transform="translate(1.393 17)">
      <path id="Path_700" data-name="Path 700" d="M107.744,6.113l-1.582,1.472-.052-.04c.181-.67.361-1.344.545-2.014q.689-2.5,1.38-5V.515a.224.224,0,0,1,.116-.2c.11-.018.107.107.147.178.236.435.413.9.689,1.31a18.759,18.759,0,0,0,.891,1.855.378.378,0,0,1,.064.205.37.37,0,0,1-.171.312c-.689.64-1.356,1.292-2.026,1.937Z" transform="translate(-73.635 -0.218)" fill="#f07a25"/>
      <path id="Path_701" data-name="Path 701" d="M110.735,5.909c.673-.646,1.341-1.3,2.023-1.934a.37.37,0,0,0,.171-.312.347.347,0,0,0-.064-.205,18.1,18.1,0,0,1-.891-1.855L112.446.02c.2.376.358.686.514,1,.395.787.78,1.579,1.191,2.36a.456.456,0,0,1-.132.649c-1.12,1.038-2.219,2.1-3.324,3.153a.579.579,0,0,1-.275.2,10.046,10.046,0,0,0,.315-1.469Z" transform="translate(-76.626 -0.014)" fill="#0c8d48"/>
      <path id="Path_702" data-name="Path 702" d="M9.293,3.725a.656.656,0,0,1,.383.594.639.639,0,0,1-.073.3c-.184.6-.334,1.2-.5,1.8A1.1,1.1,0,0,1,8.01,7.428a1.028,1.028,0,0,1-.193-.018q-3.8,0-7.591.006c-.2,0-.272-.018-.208-.242Q1,3.713,1.953.245A.274.274,0,0,1,2.222,0a.175.175,0,0,1,.04,0c2.6.006,5.212,0,7.817.009A.675.675,0,0,1,10.189,0a.523.523,0,0,1,.523.523.5.5,0,0,1-.046.211c-.2.771-.41,1.536-.634,2.3a1.091,1.091,0,0,1-.741.689Zm6.155-.735c.851,0,1.7-.015,2.553.009.018,0,.037,0,.055,0a.4.4,0,0,0,.4-.376c.2-.759.413-1.515.6-2.277A.359.359,0,0,1,19.418,0a.353.353,0,0,1,.08.009c.141.009.282.015.425.015s.279-.006.416-.015c.226-.012.279.055.214.279-.321,1.139-.627,2.283-.94,3.422-.3,1.1-.606,2.2-.9,3.3a.423.423,0,0,1-.422.413.38.38,0,0,1-.1-.012q-.211-.018-.422-.018c-.129,0-.257.006-.386.015-.217.009-.251-.061-.193-.263.233-.8.441-1.6.67-2.393.067-.233.037-.327-.239-.324q-2.6.018-5.2,0a.333.333,0,0,0-.055,0,.354.354,0,0,0-.355.337c-.2.8-.438,1.6-.649,2.4a.281.281,0,0,1-.282.257.337.337,0,0,1-.055-.006c-.147-.009-.3-.012-.447-.012s-.306.006-.456.015c-.315.021-.263-.141-.208-.337q.51-1.85,1.016-3.7.427-1.556.848-3.113a.268.268,0,0,1,.266-.251.175.175,0,0,1,.04,0c.321.015.646.015.967,0,.223-.009.248.073.193.269-.23.817-.441,1.641-.676,2.458-.064.217-.009.26.2.257.894-.012,1.787-.006,2.681-.006ZM22.341.034h.321c.429,0,.432,0,.321.395q-.9,3.26-1.8,6.522c-.135.487-.141.487-.64.487-.236,0-.474-.006-.71,0-.211.009-.254-.061-.2-.269q.859-3.058,1.7-6.121A5.376,5.376,0,0,0,21.5.4V.383a.367.367,0,0,1,.37-.367.333.333,0,0,1,.11.018c.064.006.132.006.2.006.049,0,.1,0,.156-.006Zm8.288,3.973c-.248.22-.5.435-.738.658-.927.851-1.849,1.708-2.773,2.565-.153.144-.233.168-.352-.043C26.084,5.99,25.389,4.8,24.7,3.612a.511.511,0,0,0-.077-.086.88.88,0,0,0-.187.462Q24,5.54,23.586,7.1a.325.325,0,0,1-.327.315.456.456,0,0,1-.064-.006c-.309-.024-.624-.009-.937,0-.144,0-.223-.018-.171-.2q.973-3.512,1.937-7.03A.4.4,0,0,1,24.079.1a1.246,1.246,0,0,1,.3.4Q25.689,2.693,27,4.882c.2.327.19.321.484.07q2.369-2.02,4.744-4.034c.318-.269.634-.542.979-.836A.716.716,0,0,1,33.212.2a.739.739,0,0,1-.086.343c-.6,2.2-1.209,4.4-1.806,6.6a.3.3,0,0,1-.3.279.269.269,0,0,1-.052-.006c-.153-.009-.309-.012-.462-.012s-.3,0-.444.012c-.257.015-.279-.08-.214-.3.272-.961.533-1.928.8-2.892a.184.184,0,0,0,.024-.089.178.178,0,0,0-.043-.119ZM3.379,1.457c1.65.021,3.293,0,4.94,0a.526.526,0,0,1,.526.526A.543.543,0,0,1,8.8,2.2a.968.968,0,0,1-.952.8q-2.442,0-4.891.006c-.269,0-.279-.107-.211-.315a7.649,7.649,0,0,0,.263-.93.306.306,0,0,1,.309-.3.206.206,0,0,1,.061,0Zm-.9,2.972q2.456,0,4.919.009c.563,0,.787.52.456,1.053a.984.984,0,0,1-.848.484c-1.607,0-3.211-.018-4.818,0-.248,0-.364-.031-.263-.318.113-.324.193-.661.275-.992a.283.283,0,0,1,.279-.239Z" transform="translate(0)" fill="#66686c" fill-rule="evenodd"/>
    </g>
  </g>
</svg>
