<svg xmlns="http://www.w3.org/2000/svg" width="21.822" height="28.37" viewBox="0 0 21.822 28.37">
  <path id="Icon_ionic-ios-lock" data-name="Icon ionic-ios-lock" d="M25.844,13.2H24.208V10.01a6.547,6.547,0,1,0-13.093-.089V13.2H9.478A2.736,2.736,0,0,0,6.75,15.923V29.016a2.736,2.736,0,0,0,2.728,2.728H25.844a2.736,2.736,0,0,0,2.728-2.728V15.923A2.736,2.736,0,0,0,25.844,13.2Zm-7.229,8.511V26.4a.978.978,0,0,1-.907.982.956.956,0,0,1-1-.955V21.706a2.182,2.182,0,1,1,1.909,0ZM22.3,13.2H13.024V9.922a4.637,4.637,0,0,1,9.274,0Z" transform="translate(-6.75 -3.374)" fill="#f3f5f6"/>
</svg>
