<svg xmlns="http://www.w3.org/2000/svg" width="16.65" height="15.217" viewBox="0 0 16.65 15.217">
  <g id="noun-bid-2034575" transform="translate(-1.091)">
    <path id="Path_2222" data-name="Path 2222" d="M3.846.282.268,3.86A.915.915,0,1,0,1.562,5.153L5.14,1.548a.913.913,0,0,0,0-1.293A.914.914,0,0,0,3.846.282Z" transform="translate(12.255 7.399) rotate(-150)" fill="#2c0543"/>
    <path id="Path_2223" data-name="Path 2223" d="M5.167.268a.914.914,0,0,0-1.294,0L.268,3.874A.915.915,0,1,0,1.562,5.167L5.14,1.562A.869.869,0,0,0,5.167.268Z" transform="translate(13.924 13.59) rotate(-150)" fill="#2c0543"/>
    <path id="Path_2224" data-name="Path 2224" d="M6.082,2.449,3.633,0a.027.027,0,0,1-.028.027L0,3.633,2.449,6.082,6.055,2.477A.027.027,0,0,0,6.082,2.449Z" transform="translate(13.198 10.954) rotate(-150)" fill="#2c0543"/>
    <path id="Path_2225" data-name="Path 2225" d="M1.321,6.648,6.044,2.064A1.188,1.188,0,0,0,6.072.358,1.165,1.165,0,0,0,4.365.386L0,5.355Z" transform="translate(6.65 13.103) rotate(-150)" fill="#2c0543"/>
    <path id="Path_2226" data-name="Path 2226" d="M314.7,407.223v.5h-.385a.8.8,0,0,0-.8.8v.716h9.44v-.716a.8.8,0,0,0-.8-.8h-.385v-.5a.8.8,0,0,0-.8-.8H315.5a.8.8,0,0,0-.8.8Z" transform="translate(-305.215 -394.015)" fill="#2c0543"/>
  </g>
</svg>
