<svg xmlns="http://www.w3.org/2000/svg" width="11.578" height="13.628" viewBox="0 0 11.578 13.628">
  <g id="noun_users_216107" transform="translate(-9.271 -19.279)">
    <g id="Group_189" data-name="Group 189" transform="translate(9.271 19.279)">
      <path id="Path_72" data-name="Path 72" d="M39.583,26.458c1.452,0,3.011-1.93,3.011-3.912a3.021,3.021,0,1,0-6.023,0C36.572,24.528,38.084,26.458,39.583,26.458Z" transform="translate(-33.794 -19.279)" fill="#2284cb"/>
      <path id="Path_73" data-name="Path 73" d="M35.225,58.229a5.666,5.666,0,0,0-1.123-1.6,3.047,3.047,0,0,0-2.525-.794c-.656.144-.687.522-1.739.522s-1.083-.378-1.739-.522a3.047,3.047,0,0,0-2.525.794,5.66,5.66,0,0,0-1.123,1.6c-.183.362-.563,1.417-.327,1.871.3.574,1.025.812,3.023,1.056a24.807,24.807,0,0,0,5.382,0c2-.244,2.724-.482,3.023-1.056C35.788,59.646,35.408,58.591,35.225,58.229Z" transform="translate(-24.049 -47.675)" fill="#2284cb"/>
    </g>
  </g>
</svg>
