<svg xmlns="http://www.w3.org/2000/svg" xmlns:xlink="http://www.w3.org/1999/xlink" width="46" height="46" viewBox="0 0 46 46">
  <defs>
    <clipPath id="clip-bitcoin">
      <rect width="46" height="46"/>
    </clipPath>
  </defs>
  <g id="bitcoin" clip-path="url(#clip-bitcoin)">
    <g id="btc" transform="translate(0 -0.361)">
      <circle id="Ellipse_33" data-name="Ellipse 33" cx="23" cy="23" r="23" transform="translate(0 0.361)" fill="#f7931a"/>
      <path id="Path_619" data-name="Path 619" d="M29.935,17.619c.455-3.037-1.859-4.669-5.02-5.759l1.026-4.115-2.5-.623-1,4.006c-.658-.165-1.333-.319-2.007-.472l1.007-4.032L18.934,6l-1.026,4.113c-.545-.125-1.081-.246-1.6-.377l0-.013-3.454-.862-.666,2.674s1.859.426,1.82.452a1.333,1.333,0,0,1,1.166,1.457L14.01,18.132a2.227,2.227,0,0,1,.261.083l-.265-.065-1.637,6.566a.913.913,0,0,1-1.149.594c.026.036-1.82-.453-1.82-.453L8.157,27.721l3.26.813c.606.152,1.2.311,1.783.461l-1.036,4.161,2.5.623,1.026-4.115c.684.184,1.347.355,2,.517l-1.023,4.1,2.5.623L20.2,30.749c4.271.808,7.481.482,8.833-3.38,1.089-3.109-.054-4.9-2.3-6.073a3.992,3.992,0,0,0,3.2-3.677Zm-5.723,8.023c-.772,3.111-6.01,1.428-7.707,1.007l1.376-5.513C19.579,21.561,25.022,22.4,24.212,25.642Zm.775-8.068c-.706,2.829-5.063,1.391-6.476,1.039l1.246-5c1.413.352,5.966,1.008,5.23,3.959Z" transform="translate(3.661 2.693)" fill="#fff"/>
    </g>
  </g>
</svg>
