<svg xmlns="http://www.w3.org/2000/svg" xmlns:xlink="http://www.w3.org/1999/xlink" width="30" height="30" viewBox="0 0 30 30">
  <defs>
    <clipPath id="clip-Board">
      <rect width="30" height="30"/>
    </clipPath>
  </defs>
  <g id="Board" clip-path="url(#clip-Board)">
    <g id="noun_leaderboard_3777182" transform="translate(-1.3 -0.5)">
      <g id="Group_134" data-name="Group 134" transform="translate(4.3 5.5)">
        <path id="Path_49" data-name="Path 49" d="M26.769,8.945l.716.2a3.571,3.571,0,0,0,2.02,1.407v.435a1.452,1.452,0,0,1-1.432,1.458H27.92a.229.229,0,0,0-.23.23v.946a.229.229,0,0,0,.23.23h5.064a.229.229,0,0,0,.23-.23v-.946a.229.229,0,0,0-.23-.23H32.83A1.43,1.43,0,0,1,31.4,11.016v-.435a3.227,3.227,0,0,0,1.637-.946c.128-.128.23-.281.384-.46L34.134,9a4.129,4.129,0,0,0,3.043-3.964V4.265a.486.486,0,0,0-.486-.486h-2.1V2.986a.486.486,0,0,0-.486-.486h-7.34a.486.486,0,0,0-.486.486V3.8h-2.1a.486.486,0,0,0-.486.486v.716A4.1,4.1,0,0,0,26.769,8.945Zm7.775-3.887h1.33a2.856,2.856,0,0,1-1.739,2.557A9.228,9.228,0,0,0,34.544,5.057Zm-8.235,0a10.165,10.165,0,0,0,.409,2.557,2.856,2.856,0,0,1-1.739-2.557Z" transform="translate(-18.739 -2.5)" fill="#797979"/>
        <path id="Path_50" data-name="Path 50" d="M26.984,57.3H21.691V53.691A.688.688,0,0,0,21,53H10.975a.688.688,0,0,0-.691.691V57.3H4.991a.688.688,0,0,0-.691.691v5.729a.688.688,0,0,0,.691.691H26.984a.688.688,0,0,0,.691-.691V57.987A.688.688,0,0,0,26.984,57.3Zm-8.158,1.228-1.074.972a.258.258,0,0,0-.077.23l.281,1.432a.4.4,0,0,1-.588.435l-1.253-.716a.191.191,0,0,0-.23,0l-1.253.716a.4.4,0,0,1-.588-.435l.281-1.432a.206.206,0,0,0-.077-.23l-1.074-.972a.415.415,0,0,1,.23-.716l1.432-.153a.24.24,0,0,0,.2-.153l.588-1.33a.414.414,0,0,1,.742,0l.588,1.33a.265.265,0,0,0,.2.153l1.432.153A.415.415,0,0,1,18.826,58.524Z" transform="translate(-4.3 -43.605)" fill="#797979"/>
      </g>
    </g>
  </g>
</svg>
