<svg xmlns="http://www.w3.org/2000/svg" xmlns:xlink="http://www.w3.org/1999/xlink" width="40" height="40" viewBox="0 0 40 40">
  <defs>
    <clipPath id="clip-bonus">
      <rect width="40" height="40"/>
    </clipPath>
  </defs>
  <g id="bonus" clip-path="url(#clip-bonus)">
    <g id="Group_575" data-name="Group 575" transform="translate(-28 -572.396)">
      <path id="Exclusion_4" data-name="Exclusion 4" d="M15.688,34H5.124a2,2,0,0,1-2-2V19a2,2,0,0,1,2-2H15.639l.049,17Zm13.55,0H18.356l-.048-17H29.237a2,2,0,0,1,2,2V32A2,2,0,0,1,29.237,34ZM15.669,14.449H1.434A1.45,1.45,0,0,1,0,12.985v-2.4A1.45,1.45,0,0,1,1.434,9.119H8.347A4.293,4.293,0,0,1,6.093,7.551a4.711,4.711,0,0,1-.819-4.023A4.593,4.593,0,0,1,8.347.236,4.168,4.168,0,0,1,9.732,0,4.606,4.606,0,0,1,12.7,1.124L17,4.886l4.3-3.71a4.425,4.425,0,0,1,2.943-1.1,4.815,4.815,0,0,1,1.409.213A4.593,4.593,0,0,1,28.726,3.58,4.711,4.711,0,0,1,27.907,7.6a4.292,4.292,0,0,1-2.254,1.568h6.913A1.478,1.478,0,0,1,34,10.581v2.4a1.45,1.45,0,0,1-1.434,1.462H18.331V9.328H15.669v5.12Zm8.57-11.444a1.516,1.516,0,0,0-1.043.418l-3.533,3.03h4.608a2,2,0,0,0,1.382-.627,1.789,1.789,0,0,0,.308-1.515,1.754,1.754,0,0,0-1.127-1.2A1.868,1.868,0,0,0,24.239,3.005ZM9.729,2.953a1.837,1.837,0,0,0-.512.1A1.649,1.649,0,0,0,8.09,4.26,1.957,1.957,0,0,0,8.4,5.774a1.681,1.681,0,0,0,1.331.68L14.287,6.4,10.8,3.371A1.632,1.632,0,0,0,9.729,2.953Z" transform="translate(31 575.396)" fill="#454545"/>
    </g>
  </g>
</svg>
