<svg xmlns="http://www.w3.org/2000/svg" width="14.613" height="13.252" viewBox="0 0 14.613 13.252">
  <g id="Group_1955" data-name="Group 1955" transform="translate(-250.244 -429.255)">
    <path id="Path_2241" data-name="Path 2241" d="M263.919,429.255h-4.36a.34.34,0,0,0-.34.34v.991a.34.34,0,0,0,.35.34l2.361-.07-3.645,3.645-2.153-2.153a.939.939,0,0,0-1.328,0h0l-4.459,4.459a.34.34,0,0,0,0,.481l.848.848a.34.34,0,0,0,.481,0l3.791-3.791,2.153,2.153a.939.939,0,0,0,1.328,0h0l4.31-4.31.02,2.368a.341.341,0,0,0,.34.338h.9a.34.34,0,0,0,.34-.34v-4.36a.938.938,0,0,0-.939-.939Z" fill="#0f161f"/>
    <path id="Path_2240" data-name="Path 2240" d="M251.316,439.175h1.2a.315.315,0,0,1,.34.278v2.8h-1.879v-2.8A.314.314,0,0,1,251.316,439.175Z" transform="translate(0 0.257)" fill="#e11f33"/>
    <path id="Path_2242" data-name="Path 2242" d="M255.073,437.3h1.2a.329.329,0,0,1,.34.314v4.9h-1.879v-4.9A.328.328,0,0,1,255.073,437.3Z" transform="translate(0)" fill="#2d8e36"/>
    <path id="Path_2243" data-name="Path 2243" d="M258.83,439.175h1.2a.324.324,0,0,1,.341.3v3.037H258.49v-3.037A.323.323,0,0,1,258.83,439.175Z" transform="translate(0 -0.008)" fill="#e11f33"/>
    <path id="Path_2244" data-name="Path 2244" d="M262.587,436.357h1.2a.331.331,0,0,1,.34.318v5.831h-1.879v-5.831A.33.33,0,0,1,262.587,436.357Z" transform="translate(0)" fill="#2d8e36"/>
  </g>
</svg>
