<svg xmlns="http://www.w3.org/2000/svg" xmlns:xlink="http://www.w3.org/1999/xlink" width="12" height="14" viewBox="0 0 12 14">
  <defs>
    <clipPath id="clip-choosefile">
      <rect width="12" height="14"/>
    </clipPath>
  </defs>
  <g id="choosefile" clip-path="url(#clip-choosefile)">
    <path id="Icon_metro-attachment" data-name="Icon metro-attachment" d="M10.609,5.573,9.884,4.85,6.259,8.469a1.537,1.537,0,1,0,2.175,2.172L12.784,6.3A2.561,2.561,0,0,0,9.159,2.678L4.592,7.238l-.01.009A3.572,3.572,0,0,0,9.638,12.3l.009-.01h0l3.118-3.113-.725-.724L8.922,11.562l-.009.009a2.548,2.548,0,0,1-3.606-3.6l.01-.009h0L9.884,3.4a1.537,1.537,0,1,1,2.175,2.172L7.709,9.917a.512.512,0,0,1-.725-.724l3.625-3.62Z" transform="translate(-2.535 -0.356)" fill="#2c0543"/>
  </g>
</svg>
