<svg xmlns="http://www.w3.org/2000/svg" width="13.137" height="13.137" viewBox="0 0 13.137 13.137">
  <g id="noun_coin_2900811" transform="translate(-64 -14)">
    <path id="Union_1" data-name="Union 1" d="M-2261-1716.432a6.576,6.576,0,0,1,6.569-6.569,6.576,6.576,0,0,1,6.569,6.569,6.576,6.576,0,0,1-6.569,6.569A6.576,6.576,0,0,1-2261-1716.432Zm1.474,0a5.1,5.1,0,0,0,5.094,5.092,5.1,5.1,0,0,0,5.094-5.092,5.1,5.1,0,0,0-5.094-5.092A5.1,5.1,0,0,0-2259.525-1716.434Zm3.715,4.46.235-.646a3.918,3.918,0,0,0,.951.163v.686A4.619,4.619,0,0,1-2255.81-1711.974Zm1.609-.484a3.994,3.994,0,0,0,.948-.171l.233.644a4.635,4.635,0,0,1-1.182.213Zm-3.051-.258.441-.525a3.964,3.964,0,0,0,.837.479l-.234.645A4.68,4.68,0,0,1-2257.252-1712.717Zm4.4-.06a4,4,0,0,0,.83-.485l.44.525a4.67,4.67,0,0,1-1.035.605Zm-5.138-3.657a3.564,3.564,0,0,1,3.562-3.559,3.564,3.564,0,0,1,3.561,3.559,3.565,3.565,0,0,1-3.561,3.56A3.565,3.565,0,0,1-2257.993-1716.434Zm-.362,2.527.595-.343a4.009,4.009,0,0,0,.624.737l-.441.526A4.715,4.715,0,0,1-2258.355-1713.908Zm6.653.371a3.991,3.991,0,0,0,.615-.737l.595.343a4.724,4.724,0,0,1-.769.92Zm-7.283-1.867.676-.119a3.966,3.966,0,0,0,.334.906l-.594.343A4.59,4.59,0,0,1-2258.985-1715.4Zm8.11.763a3.946,3.946,0,0,0,.327-.9l.676.119a4.65,4.65,0,0,1-.408,1.127Zm-8.226-1.794a4.621,4.621,0,0,1,.038-.591l.675.119a4.187,4.187,0,0,0-.028.472,3.986,3.986,0,0,0,.032.494l-.677.12A4.808,4.808,0,0,1-2259.1-1716.434Zm8.625.473a3.9,3.9,0,0,0,.029-.473,3.878,3.878,0,0,0-.031-.488l.677-.119a4.639,4.639,0,0,1,.04.606,4.6,4.6,0,0,1-.039.592Zm-8.515-1.483a4.659,4.659,0,0,1,.411-1.132l.595.343a3.972,3.972,0,0,0-.329.909Zm8.109-.8.595-.343a4.65,4.65,0,0,1,.412,1.126l-.677.119A4,4,0,0,0-2250.882-1718.242Zm-7.485-.7a4.673,4.673,0,0,1,.774-.923l.442.526a4.018,4.018,0,0,0-.621.74Zm6.654-.4.441-.526a4.7,4.7,0,0,1,.772.918l-.594.343A4.027,4.027,0,0,0-2251.713-1719.343Zm-5.555-.8a4.651,4.651,0,0,1,1.041-.6l.235.645a4,4,0,0,0-.836.484Zm4.4.039.235-.645a4.686,4.686,0,0,1,1.04.6l-.441.525A4,4,0,0,0-2252.871-1720.1Zm-1.348-.313v-.686a4.643,4.643,0,0,1,1.184.208l-.234.646A3.963,3.963,0,0,0-2254.22-1720.412Zm-1.609-.477a4.665,4.665,0,0,1,1.186-.208v.686a3.973,3.973,0,0,0-.951.168Z" transform="translate(2325 1737)" fill="#ff8327"/>
  </g>
</svg>
