<svg xmlns="http://www.w3.org/2000/svg" width="56.33" height="56.33" viewBox="0 0 56.33 56.33"><g transform="translate(-103.295 -185.832)"><g transform="translate(103.295 185.832)"><path d="M0,28.168A28.165,28.165,0,1,1,28.165,56.333,28.165,28.165,0,0,1,0,28.168Zm6.322-.012A21.843,21.843,0,1,0,28.162,6.323,21.843,21.843,0,0,0,6.322,28.156ZM22.251,47.282l1.008-2.767a17,17,0,0,0,4.075.7v2.939a19.923,19.923,0,0,1-5.083-.871Zm6.9-2.078a17.013,17.013,0,0,0,4.064-.732l1.006,2.762a19.886,19.886,0,0,1-5.07.914ZM16.068,44.1l1.892-2.248a17.109,17.109,0,0,0,3.59,2.058l-1.006,2.762A20.063,20.063,0,0,1,16.068,44.1ZM34.92,43.84a17.05,17.05,0,0,0,3.559-2.081l1.89,2.251a20.027,20.027,0,0,1-4.441,2.6Zm-23.58-4.848,2.548-1.47a17.271,17.271,0,0,0,2.676,3.158l-1.892,2.255A20.182,20.182,0,0,1,11.339,38.991Zm28.526,1.592a17.213,17.213,0,0,0,2.64-3.16l2.548,1.47a20.158,20.158,0,0,1-3.295,3.943Zm-31.229-8,2.9-.511a16.909,16.909,0,0,0,1.435,3.887l-2.55,1.469a19.868,19.868,0,0,1-1.786-4.847Zm34.776,3.273a16.95,16.95,0,0,0,1.4-3.872l2.9.51a19.866,19.866,0,0,1-1.753,4.832Zm-35.274-7.7A20.038,20.038,0,0,1,8.3,25.62l2.9.511a16.566,16.566,0,0,0,.012,4.144l-2.9.513a20.061,20.061,0,0,1-.177-2.632Zm36.981,2.03a16.559,16.559,0,0,0,0-4.119l2.9-.51a19.868,19.868,0,0,1,.177,2.6,20.111,20.111,0,0,1-.166,2.54ZM8.614,23.83a19.83,19.83,0,0,1,1.764-4.857l2.549,1.47a16.927,16.927,0,0,0-1.416,3.893Zm34.769-3.421,2.549-1.47A19.839,19.839,0,0,1,47.7,23.767l-2.9.511a16.916,16.916,0,0,0-1.419-3.87ZM11.29,17.4a20.18,20.18,0,0,1,3.317-3.959L16.5,15.7a17.163,17.163,0,0,0-2.662,3.174Zm28.528-1.716,1.892-2.255a20.149,20.149,0,0,1,3.309,3.939l-2.548,1.47a17.217,17.217,0,0,0-2.655-3.155ZM16,12.273a20.033,20.033,0,0,1,4.466-2.592l1.008,2.765a17.075,17.075,0,0,0-3.584,2.079Zm18.856.17,1.008-2.764a20,20,0,0,1,4.456,2.583L38.427,14.51a17.088,17.088,0,0,0-3.573-2.068ZM22.171,9.055a19.946,19.946,0,0,1,5.084-.894V11.1a17,17,0,0,0-4.078.719Zm6.9,2.047V8.163a19.914,19.914,0,0,1,5.078.892l-1.008,2.766a17,17,0,0,0-4.069-.718Z" transform="translate(0 -0.003)" fill="#3a0a62"/></g><path d="M4611.746-2140.9h-4.752v-5.415l2.445-2.435,2.307,2.3v5.553Zm-4.752-7.289v-1.594l2.445-2.435,2.307,2.3v1.594l-2.024-2.025a.4.4,0,0,0-.283-.116.394.394,0,0,0-.28.116l-2.165,2.165Zm0-3.469v-8.156l-3.989,1.331v-4.6l4.96-2.423h3.781v13.705l-2.024-2.026a.4.4,0,0,0-.283-.116.4.4,0,0,0-.28.116l-2.165,2.165Z" transform="translate(-4482.546 2367.261)" fill="#3a0a62"/><path d="M4611.746-2140.9h-4.752v-7.589l2.289,2.289a.392.392,0,0,0,.281.115.4.4,0,0,0,.281-.115l1.9-1.9v7.2Zm-2.183-6.906h0l-2.562-2.549,0,0h0l0,0v-1.6l2.288,2.289a.393.393,0,0,0,.281.115.4.4,0,0,0,.281-.115l1.9-1.9v1.594l-2.183,2.172Zm0-3.469h0l-2.562-2.55,0,0,0,0v-5.983l-3.99,1.332v-4.6l4.961-2.424h3.781v12.056l-2.183,2.172Z" transform="translate(-4471.878 2367.26)" fill="#3a0a62"/><g transform="translate(111.491 194.06)"><path d="M14.067,39.006l1.006-2.76a16.93,16.93,0,0,0,4.063.7v2.93a19.858,19.858,0,0,1-5.069-.868Zm6.88-2.072A16.944,16.944,0,0,0,25,36.2l1.01,2.755a19.88,19.88,0,0,1-5.056.91Zm-13.04-1.1,1.884-2.245a17.02,17.02,0,0,0,3.58,2.051l-1,2.752a19.96,19.96,0,0,1-4.462-2.559Zm18.8-.254A17.057,17.057,0,0,0,30.257,33.5l1.88,2.243a19.968,19.968,0,0,1-4.429,2.59ZM3.192,30.74l2.54-1.466A17.2,17.2,0,0,0,8.4,32.422L6.513,34.671A20.125,20.125,0,0,1,3.192,30.74Zm28.443,1.587a17.151,17.151,0,0,0,2.631-3.152L36.8,30.642a20.1,20.1,0,0,1-3.286,3.933ZM.5,24.343l2.891-.51a16.871,16.871,0,0,0,1.431,3.876L2.277,29.176A19.8,19.8,0,0,1,.5,24.343ZM35.171,27.6a16.877,16.877,0,0,0,1.4-3.861l2.891.51a19.805,19.805,0,0,1-1.747,4.818ZM0,19.936a19.983,19.983,0,0,1,.165-2.529l2.89.51a16.488,16.488,0,0,0,.012,4.133l-2.89.51A19.967,19.967,0,0,1,0,19.936ZM36.878,21.96a16.552,16.552,0,0,0-.007-4.107l2.89-.51a19.464,19.464,0,0,1,.007,5.125ZM.475,15.623A19.776,19.776,0,0,1,2.234,10.78l2.544,1.466a16.884,16.884,0,0,0-1.416,3.886Zm34.667-3.414,2.542-1.467a19.77,19.77,0,0,1,1.762,4.814l-2.891.51A16.859,16.859,0,0,0,35.142,12.209Zm-32-3A20.1,20.1,0,0,1,6.449,5.264L8.336,7.512a17.144,17.144,0,0,0-2.654,3.166ZM31.584,7.5l1.887-2.248a20.083,20.083,0,0,1,3.3,3.927L34.23,10.644A17.133,17.133,0,0,0,31.584,7.5ZM7.837,4.1A19.949,19.949,0,0,1,12.29,1.514l1,2.757A17.052,17.052,0,0,0,9.72,6.343Zm18.8.17,1-2.757a19.93,19.93,0,0,1,4.443,2.575L30.2,6.332a16.993,16.993,0,0,0-3.564-2.063ZM13.992.891A19.838,19.838,0,0,1,19.062,0V2.932a16.977,16.977,0,0,0-4.07.718Zm6.882,2.04V0a19.867,19.867,0,0,1,5.065.885l-1,2.764a16.933,16.933,0,0,0-4.061-.717Z" fill="#3a0a62"/></g></g></svg>