<svg id="Group_128" data-name="Group 128" xmlns="http://www.w3.org/2000/svg" width="21.288" height="19.261" viewBox="0 0 21.288 19.261">
  <path id="Path_4" data-name="Path 4" d="M15.1,964.362c-3.8,0-6.9,1.491-7.088,3.366.106,1.05,1.218,1.779,1.94,2.154a11.758,11.758,0,0,0,5.148,1.077,13.938,13.938,0,0,0,1.663-.1,7.83,7.83,0,0,1,5.029-2.178,2.342,2.342,0,0,0,.4-.935C21.8,964.987,17.011,964.353,15.1,964.362Zm7.1,5.069a7.1,7.1,0,1,0,7.1,7.1,7.1,7.1,0,0,0-7.1-7.1Zm-14.184.325v1.038c.078.746.737,1.514,1.94,2.122a11.566,11.566,0,0,0,4.807,1.069,7.846,7.846,0,0,1,1.053-2.035c-.235.011-.472.016-.713.016a12.659,12.659,0,0,1-5.607-1.18A6.1,6.1,0,0,1,8.008,969.755Zm0,3.041v1.038c.078.746.737,1.514,1.94,2.123a11.293,11.293,0,0,0,4.4,1.061c-.01-.163-.016-.326-.016-.491a7.9,7.9,0,0,1,.15-1.536,12.324,12.324,0,0,1-5-1.172A6.075,6.075,0,0,1,8.008,972.8Zm0,3.041c0,.344,0,.7,0,1.037.078.746.737,1.514,1.94,2.123a11.939,11.939,0,0,0,5.235,1.077,7.805,7.805,0,0,1-.7-2.043,12.322,12.322,0,0,1-4.989-1.172A6.082,6.082,0,0,1,8.008,975.838ZM8,978.879v1.2c0,1.96,3.178,3.548,7.1,3.548a13.136,13.136,0,0,0,3.073-.356,7.886,7.886,0,0,1-2.392-2.2c-.225.011-.45.024-.681.024A12.658,12.658,0,0,1,9.489,979.9,6.088,6.088,0,0,1,8,978.879Z" transform="translate(-8 -964.362)" fill="#fd4f1e"/>
</svg>
