<svg xmlns="http://www.w3.org/2000/svg" xmlns:xlink="http://www.w3.org/1999/xlink" width="50" height="40" viewBox="0 0 50 40"><defs><clipPath id="b"><rect width="50" height="40"/></clipPath></defs><g id="a" clip-path="url(#b)"><g transform="translate(-51.213 -133.591)"><path d="M6904.506-17248.473a12.127,12.127,0,0,1-12.114-12.113,12.127,12.127,0,0,1,12.114-12.113,12.127,12.127,0,0,1,12.114,12.113A12.127,12.127,0,0,1,6904.506-17248.473Zm1.571-17.541-4.725,10.586,1.471.635,4.725-10.592-1.471-.629Zm2.369,5.025a2.9,2.9,0,0,0-2.165.867,2.927,2.927,0,0,0-.85,2.117,2.861,2.861,0,0,0,.876,2.152,3,3,0,0,0,2.139.828,2.945,2.945,0,0,0,2.191-.859,2.939,2.939,0,0,0,.837-2.121,2.84,2.84,0,0,0-.868-2.152A3.021,3.021,0,0,0,6908.445-17260.988Zm-8.053-4.922a2.931,2.931,0,0,0-2.169.859,2.917,2.917,0,0,0-.846,2.109,2.873,2.873,0,0,0,.868,2.16,2.985,2.985,0,0,0,2.147.838,2.935,2.935,0,0,0,2.183-.867,2.955,2.955,0,0,0,.846-2.131,2.842,2.842,0,0,0-.872-2.145A3.02,3.02,0,0,0,6900.393-17265.91Zm-17.65,17.156v-2.621h-6.695a8.844,8.844,0,0,1-8.833-8.834v-2.463a1.551,1.551,0,0,1,1.549-1.549,1.551,1.551,0,0,1,1.549,1.549v2.463a5.742,5.742,0,0,0,5.736,5.736h6.695v-2.621l7.22,4.17-7.219,4.168Zm25.716-7.662a1.408,1.408,0,0,1-1.041-.443,1.577,1.577,0,0,1-.425-1.131,1.6,1.6,0,0,1,.412-1.115,1.353,1.353,0,0,1,1.054-.461,1.428,1.428,0,0,1,1.059.443,1.563,1.563,0,0,1,.43,1.133,1.637,1.637,0,0,1-.412,1.119A1.382,1.382,0,0,1,6908.458-17256.416Zm-8.053-4.92a1.4,1.4,0,0,1-1.042-.447,1.59,1.59,0,0,1-.429-1.141,1.617,1.617,0,0,1,.412-1.119,1.373,1.373,0,0,1,1.059-.457,1.428,1.428,0,0,1,1.059.443,1.578,1.578,0,0,1,.425,1.133,1.627,1.627,0,0,1-.412,1.133A1.387,1.387,0,0,1,6900.406-17261.336Zm-21.048-2.838a12.131,12.131,0,0,1-12.114-12.119,12.129,12.129,0,0,1,12.114-12.117,12.132,12.132,0,0,1,12.119,12.117A12.133,12.133,0,0,1,6879.358-17264.174Zm-3.588-9.16a.207.207,0,0,0-.187.156l-.833,1.723a.261.261,0,0,0,.117.369,7.923,7.923,0,0,0,3.892,1.154v1.3a.3.3,0,0,0,.291.287h.755a.285.285,0,0,0,.291-.287v-1.344a5,5,0,0,0,2.542-.969,3.5,3.5,0,0,0,1.367-2.828,3.22,3.22,0,0,0-1.436-2.777,8.513,8.513,0,0,0-2.571-1.043l-.023-.008c-.315-.088-.577-.162-.838-.246-.969-.318-1.57-.65-1.57-1.324a.968.968,0,0,1,.464-.85,2.326,2.326,0,0,1,1.319-.312,6,6,0,0,1,3.024.889.265.265,0,0,0,.142.041.265.265,0,0,0,.227-.137l.816-1.766a.241.241,0,0,0,.031-.187.272.272,0,0,0-.148-.164,7.918,7.918,0,0,0-3.358-.91v-1.385a.277.277,0,0,0-.282-.285h-.755a.3.3,0,0,0-.291.285v1.393a5.17,5.17,0,0,0-2.638.891,3.12,3.12,0,0,0-1.293,2.6,3.079,3.079,0,0,0,1.549,2.791,9.514,9.514,0,0,0,2.381.967l.051.016c.284.086.552.166.809.258.959.359,1.553.727,1.553,1.453a1.23,1.23,0,0,1-.517,1.055,2.312,2.312,0,0,1-1.418.369,6.3,6.3,0,0,1-3.3-1.105A.29.29,0,0,0,6875.77-17273.334Zm39.335.678a1.551,1.551,0,0,1-1.549-1.549v-2.465a5.742,5.742,0,0,0-5.736-5.736h-6.695v2.621l-7.22-4.17,7.22-4.17v2.621h6.695a8.844,8.844,0,0,1,8.834,8.834v2.465A1.551,1.551,0,0,1,6915.105-17272.656Z" transform="translate(-6815.999 17422)" fill="#333"/></g></g></svg>