<svg xmlns="http://www.w3.org/2000/svg" xmlns:xlink="http://www.w3.org/1999/xlink" width="40" height="40" viewBox="0 0 40 40">
  <defs>
    <clipPath id="clip-commission">
      <rect width="40" height="40"/>
    </clipPath>
  </defs>
  <g id="commission" clip-path="url(#clip-commission)">
    <g id="Group_418" data-name="Group 418" transform="translate(-26.881 -446.612)">
      <g id="noun_Money_417215" transform="translate(54.118 467.331) rotate(90)">
        <path id="Path_484" data-name="Path 484" d="M14.78.423A6.324,6.324,0,0,0,14.1,2.7,44.15,44.15,0,0,0,13.6,7.39v.3a4.738,4.738,0,0,1-.422,1.689,48.928,48.928,0,0,1-4.181,6.841l-.169.211a.447.447,0,0,1-.549.127A.427.427,0,0,1,8.108,16l3.674-6.039A1.578,1.578,0,0,0,11.233,7.9a1.485,1.485,0,0,0-2.069.465L5.321,13.3a4.79,4.79,0,0,1-1.056,1.013A9.506,9.506,0,0,0,.042,20.608,5.615,5.615,0,0,0,0,21.326H0A6.62,6.62,0,0,0,.084,22.55L.3,26.688a.559.559,0,0,0,.549.549l6.5-.042a.559.559,0,0,0,.549-.549l.127-3.42,6.165-7.432a6.206,6.206,0,0,0,1.731-3.378l.042-.38L17.1,1.69A1.566,1.566,0,0,0,16.6.338,1.278,1.278,0,0,0,14.78.423Zm-2.323,6.63V6.715a40.749,40.749,0,0,1,.507-4.434,5.818,5.818,0,0,1,.253-1.1,1.367,1.367,0,0,0-.971,1.1,34.779,34.779,0,0,0-.8,4.181.041.041,0,0,0,.042.042c.211.084.38.169.591.253A2.321,2.321,0,0,1,12.457,7.053ZM10.43,5.617c.084-.76.549-2.2.718-2.956a1.435,1.435,0,0,0-.971,1.1c-.169.633-.633,2.027-.76,2.745a2.272,2.272,0,0,1,.929-.169V6.166Z" transform="translate(0 0)" fill="#454545"/>
      </g>
      <path id="Subtraction_1" data-name="Subtraction 1" d="M24.718,14.423h0l-3.085-1.572a2.125,2.125,0,0,1,.671-.109c.062,0,.125,0,.188.008a2.429,2.429,0,0,1,.54.132l.578-6.605-.019,0a2.585,2.585,0,0,1-.4.039c-.045,0-.091,0-.136-.006A2.156,2.156,0,0,1,21.1,3.981a2.372,2.372,0,0,1,.131-.539L5.327,2.05a1.148,1.148,0,0,1,.01.375v.007A2.167,2.167,0,0,1,3.191,4.4c-.062,0-.125,0-.188-.008a1.177,1.177,0,0,1-.375-.076L2.1,10.308.2,14.039a2.139,2.139,0,0,1-.195-1.095L.968,1.966A2.169,2.169,0,0,1,3.114,0C3.177,0,3.24,0,3.3.008l20.36,1.781a2.162,2.162,0,0,1,1.958,2.333l-.9,10.3Zm-7.655-3.9h0L8.721,6.272a4.707,4.707,0,0,1,4.092-2.4c.135,0,.272.006.408.018a4.682,4.682,0,0,1,3.843,6.637Zm2.562-.063c-.037,0-.075,0-.113,0a1.315,1.315,0,0,1-1.19-1.418,1.317,1.317,0,0,1,1.3-1.195c.038,0,.076,0,.114.005a1.316,1.316,0,0,1,1.191,1.417A1.32,1.32,0,0,1,19.625,10.46Z" transform="translate(38.906 448.613)" fill="#454545"/>
      <path id="Path_485" data-name="Path 485" d="M19.213,6.376a1.309,1.309,0,1,0,1.309,1.309A1.316,1.316,0,0,0,19.213,6.376Zm-13.682,0A1.309,1.309,0,1,0,6.841,7.685,1.316,1.316,0,0,0,5.532,6.376Zm19.213,6.8a2.163,2.163,0,0,1-2.154,2.154H2.154A2.163,2.163,0,0,1,0,13.175V2.154A2.163,2.163,0,0,1,2.154,0H22.592a2.163,2.163,0,0,1,2.154,2.154V13.175Zm-1.816-8.7a2.14,2.14,0,0,1-.549.084,2.163,2.163,0,0,1-2.154-2.154,2.471,2.471,0,0,1,.084-.549H4.349a1.169,1.169,0,0,1,.042.38A2.163,2.163,0,0,1,2.238,4.392a1.169,1.169,0,0,1-.38-.042v6.587a1.169,1.169,0,0,1,.38-.042,2.163,2.163,0,0,1,2.154,2.154,1.169,1.169,0,0,1-.042.38H20.227v-.253a2.163,2.163,0,0,1,2.154-2.154,2.471,2.471,0,0,1,.549.084ZM17.06,7.685A4.687,4.687,0,1,1,12.373,3,4.7,4.7,0,0,1,17.06,7.685Z" transform="matrix(0.891, 0.454, -0.454, 0.891, 45.43, 456.652)" fill="#454545"/>
    </g>
  </g>
</svg>
