<svg xmlns="http://www.w3.org/2000/svg" xmlns:xlink="http://www.w3.org/1999/xlink" width="50" height="40" viewBox="0 0 50 40"><defs><clipPath id="b"><rect width="50" height="40"/></clipPath></defs><g id="a" clip-path="url(#b)"><g transform="translate(-23.88 -446.613)"><g transform="translate(54.914 467.026) rotate(90)"><path d="M15.212.435a6.508,6.508,0,0,0-.7,2.347,45.44,45.44,0,0,0-.522,4.824v.3a4.877,4.877,0,0,1-.435,1.738,50.358,50.358,0,0,1-4.3,7.041l-.174.217a.461.461,0,0,1-.565.13.44.44,0,0,1-.174-.565l3.781-6.215a1.624,1.624,0,0,0-.565-2.13,1.529,1.529,0,0,0-2.13.478L5.476,13.691A4.93,4.93,0,0,1,4.39,14.734,9.784,9.784,0,0,0,.043,21.21,5.779,5.779,0,0,0,0,21.949H0a6.814,6.814,0,0,0,.087,1.26L.3,27.468a.575.575,0,0,0,.565.565l6.693-.043a.575.575,0,0,0,.565-.565l.13-3.52L14.6,16.255a6.388,6.388,0,0,0,1.782-3.477l.043-.391L17.6,1.739A1.612,1.612,0,0,0,17.08.348,1.316,1.316,0,0,0,15.212.435Zm-2.39,6.823V6.911a41.941,41.941,0,0,1,.522-4.563,5.988,5.988,0,0,1,.261-1.13,1.407,1.407,0,0,0-1,1.13,35.8,35.8,0,0,0-.826,4.3.043.043,0,0,0,.043.043c.217.087.391.174.608.261A2.389,2.389,0,0,1,12.821,7.259ZM10.735,5.781c.087-.782.565-2.26.739-3.042a1.477,1.477,0,0,0-1,1.13c-.174.652-.652,2.086-.782,2.825a2.339,2.339,0,0,1,.956-.174V6.346Z" transform="translate(0 0)" fill="#454545"/></g><path d="M25.441,14.845h0l-3.175-1.618a2.187,2.187,0,0,1,.691-.112c.064,0,.129,0,.193.008a2.478,2.478,0,0,1,.555.136l.594-6.8-.019,0a2.63,2.63,0,0,1-.409.04c-.048,0-.094,0-.142-.006a2.226,2.226,0,0,1-2.015-2.4,2.571,2.571,0,0,1,.136-.555L5.483,2.11a1.189,1.189,0,0,1,.01.386V2.5A2.232,2.232,0,0,1,3.284,4.527c-.064,0-.129,0-.192-.008H3.084a1.19,1.19,0,0,1-.379-.077l-.54,6.169L.209,14.45a2.2,2.2,0,0,1-.2-1.127L1,2.023A2.232,2.232,0,0,1,3.206,0C3.27,0,3.334,0,3.4.008L24.354,1.841a2.22,2.22,0,0,1,2.015,2.4l-.928,10.6Zm-7.878-4.014h0L8.977,6.456A4.844,4.844,0,0,1,13.188,3.98c.139,0,.28.006.419.018a4.819,4.819,0,0,1,3.956,6.831Zm2.638-.065c-.039,0-.078,0-.117-.005A1.353,1.353,0,0,1,18.859,9.3,1.356,1.356,0,0,1,20.2,8.071c.039,0,.078,0,.117.005a1.347,1.347,0,0,1-.118,2.689Z" transform="translate(41.602 448.613)" fill="#454545"/><path d="M19.775,6.563A1.347,1.347,0,1,0,21.122,7.91,1.354,1.354,0,0,0,19.775,6.563Zm-14.082,0A1.347,1.347,0,1,0,7.041,7.91,1.354,1.354,0,0,0,5.693,6.563Zm19.775,7a2.226,2.226,0,0,1-2.217,2.217H2.217A2.226,2.226,0,0,1,0,13.56V2.217A2.226,2.226,0,0,1,2.217,0H23.252a2.226,2.226,0,0,1,2.217,2.217ZM23.6,4.607a2.2,2.2,0,0,1-.565.087,2.226,2.226,0,0,1-2.217-2.217,2.544,2.544,0,0,1,.087-.565H4.477A1.2,1.2,0,0,1,4.52,2.3,2.226,2.226,0,0,1,2.3,4.52a1.2,1.2,0,0,1-.391-.043v6.78a1.2,1.2,0,0,1,.391-.043A2.226,2.226,0,0,1,4.52,13.43a1.2,1.2,0,0,1-.043.391H20.818V13.56a2.226,2.226,0,0,1,2.217-2.217,2.544,2.544,0,0,1,.565.087Zm-6.041,3.3a4.824,4.824,0,1,1-4.824-4.824A4.841,4.841,0,0,1,17.558,7.91Z" transform="matrix(0.891, 0.454, -0.454, 0.891, 48.316, 456.036)" fill="#454545"/></g></g></svg>