<svg xmlns="http://www.w3.org/2000/svg" width="30.516" height="23.574" viewBox="0 0 30.516 23.574">
  <g id="noun-debit-card-4289987" transform="translate(-75.82 -106.957)">
    <path id="Path_2257" data-name="Path 2257" d="M126,246.96v7.869a2.434,2.434,0,0,0,2.43,2.43h15.692a6.555,6.555,0,0,1-.305-1.1,6.957,6.957,0,0,1-.111-1.232v-.011a6.73,6.73,0,0,1,6.408-6.717V246.96Zm15.167,8.35H130.28a.387.387,0,0,1,0-.774h10.886a.387.387,0,1,1,0,.774Zm0-2.96H127.945a.385.385,0,1,1,0-.771h13.221a.385.385,0,1,1,0,.771Z" transform="translate(-50.18 -130.466)" fill="#e61c24"/>
    <path id="Path_2258" data-name="Path 2258" d="M150.115,155.037v.294H126v-.294a2.432,2.432,0,0,1,2.342-2.43h.008c.027,0,.053,0,.08,0h19.252a2.435,2.435,0,0,1,2.434,2.434Z" transform="translate(-50.18 -42.537)" fill="#e61c24"/>
    <path id="Path_2259" data-name="Path 2259" d="M190.092,110.062v8.1a6.55,6.55,0,0,0-1.949-.423V112.5a3.2,3.2,0,0,0-3.2-3.2H165.98a2.436,2.436,0,0,1,2.43-2.338h18.576a3.108,3.108,0,0,1,3.105,3.105Z" transform="translate(-87.437)" fill="#e61c24"/>
    <path id="Path_2260" data-name="Path 2260" d="M407.316,278.448a6.071,6.071,0,0,0-1.175-1.8c-.042-.046-.084-.088-.126-.13a6.291,6.291,0,0,0-1-.809,6.078,6.078,0,0,0-9.372,5.092v.011a6.081,6.081,0,0,0,8.441,5.6,6.065,6.065,0,0,0,3.708-5.6,6.041,6.041,0,0,0-.477-2.365Zm-3.639,3.574a1.657,1.657,0,0,1-1.408,1.636v.675a.563.563,0,0,1-1.125,0v-.671a1.756,1.756,0,0,1-1.358-1.079.563.563,0,1,1,1.061-.378.659.659,0,0,0,.58.355h.534a.549.549,0,0,0,.591-.538v-.057a.548.548,0,0,0-.591-.534h-.53a.6.6,0,0,1-.084-.008,1.715,1.715,0,0,1-.2-3.4v-.733a.563.563,0,0,1,1.125,0v.717a1.652,1.652,0,0,1,1.331,1.083.558.558,0,0,1-.34.717.539.539,0,0,1-.187.034.562.562,0,0,1-.53-.374.531.531,0,0,0-.5-.351h-.591a.591.591,0,0,0,0,1.182.3.3,0,0,1,.057,0h.446a1.669,1.669,0,0,1,1.716,1.659Z" transform="translate(-301.457 -156.354)" fill="#e61c24"/>
  </g>
</svg>
