<svg xmlns="http://www.w3.org/2000/svg" xmlns:xlink="http://www.w3.org/1999/xlink" width="30" height="28" viewBox="0 0 30 28">
  <defs>
    <clipPath id="clip-deposits">
      <rect width="30" height="28"/>
    </clipPath>
  </defs>
  <g id="deposits" clip-path="url(#clip-deposits)">
    <g id="Group_579" data-name="Group 579" transform="translate(-26.06 -549.464)">
      <rect id="Rectangle_152" data-name="Rectangle 152" width="2.638" height="0.989" transform="translate(36.446 569.637)" fill="#454545"/>
      <rect id="Rectangle_153" data-name="Rectangle 153" width="2.638" height="1.318" transform="translate(30.189 571.285)" fill="#454545"/>
      <rect id="Rectangle_154" data-name="Rectangle 154" width="2.638" height="7.916" transform="translate(36.446 561.062)" fill="#454545"/>
      <rect id="Rectangle_155" data-name="Rectangle 155" width="2.638" height="0.989" transform="translate(42.707 569.637)" fill="#454545"/>
      <path id="Path_477" data-name="Path 477" d="M.313,1.854V3.5h29V1.854h-29Z" transform="translate(26.247 573.06)" fill="#454545" fill-rule="evenodd"/>
      <rect id="Rectangle_156" data-name="Rectangle 156" width="2.638" height="7.916" transform="translate(30.189 561.062)" fill="#454545"/>
      <rect id="Rectangle_157" data-name="Rectangle 157" width="2.638" height="7.916" transform="translate(42.707 561.062)" fill="#454545"/>
      <rect id="Rectangle_158" data-name="Rectangle 158" width="2.638" height="0.989" transform="translate(30.189 569.637)" fill="#454545"/>
      <path id="Path_478" data-name="Path 478" d="M20.528,1.757H.43v.988H25.471V1.757H20.528Z" transform="translate(28.11 571.508)" fill="#454545" fill-rule="evenodd"/>
      <rect id="Rectangle_159" data-name="Rectangle 159" width="2.638" height="1.318" transform="translate(36.446 571.285)" fill="#454545"/>
      <rect id="Rectangle_160" data-name="Rectangle 160" width="2.638" height="1.318" transform="translate(42.707 571.285)" fill="#454545"/>
      <path id="Path_481" data-name="Path 481" d="M.346,8.575h11.97a3.295,3.295,0,1,1,3.948,0h11.97L14.288.383.346,8.575Z" transform="translate(26.769 549.52)" fill="#454545" fill-rule="evenodd"/>
      <path id="Path_482" data-name="Path 482" d="M6.289,3.193A2.639,2.639,0,1,0,3.65,5.831,2.642,2.642,0,0,0,6.289,3.193Z" transform="translate(37.409 552.263)" fill="#454545" fill-rule="evenodd"/>
      <path id="Path_483" data-name="Path 483" d="M.43,2.551H25.471V.9H.43Z" transform="translate(28.11 557.851)" fill="#454545" fill-rule="evenodd"/>
      <rect id="Rectangle_161" data-name="Rectangle 161" width="2.638" height="7.916" transform="translate(48.963 561.062)" fill="#454545"/>
      <rect id="Rectangle_162" data-name="Rectangle 162" width="2.638" height="0.989" transform="translate(48.963 569.637)" fill="#454545"/>
      <rect id="Rectangle_163" data-name="Rectangle 163" width="2.638" height="1.318" transform="translate(48.963 571.285)" fill="#454545"/>
    </g>
  </g>
</svg>
