<svg xmlns="http://www.w3.org/2000/svg" xmlns:xlink="http://www.w3.org/1999/xlink" width="30" height="14" viewBox="0 0 30 14">
  <defs>
    <clipPath id="clip-depositbyfiat">
      <rect width="30" height="14"/>
    </clipPath>
  </defs>
  <g id="depositbyfiat" clip-path="url(#clip-depositbyfiat)">
    <path id="Path_472" data-name="Path 472" d="M31.5,37.249a.466.466,0,0,0-.323-.485l-3.065-.974,2.986-.4a.466.466,0,0,0,.079-.907l-9.637-3.063a.467.467,0,0,0-.188-.02l-7.243.736h0l-.575.059L1.918,33.374a.466.466,0,0,0-.194.863L3.761,35.47l-1.843.187a.466.466,0,0,0-.194.863l2.037,1.233-1.843.187a.466.466,0,0,0-.194.863l2.037,1.233-1.843.187a.466.466,0,0,0-.194.863L8.486,45.18a.462.462,0,0,0,.3.063l22.306-3a.466.466,0,0,0,.079-.907l-3.065-.974,2.986-.4a.466.466,0,0,0,.079-.907l-3.065-.974,2.986-.4A.466.466,0,0,0,31.5,37.249Zm-2.585-2.508-2.965.4-.011,0-4.561.615a.417.417,0,0,0-.043.01L15.765,32.9l5.582-.567ZM11.379,33.35l2.684-.273,6.712,3.453v6.153l-4.8.6V37.017a.466.466,0,0,0-.248-.412l-5.87-3.1Zm-3.2.325L14,36.75l-5.175.7L5.423,35.385l-.008,0L3.4,34.161Zm-3.095,2.6,3.4,2.057a.462.462,0,0,0,.3.063l6.253-.842v1.342l-6.214.837L3.4,36.444Zm0,2.283,3.4,2.057a.462.462,0,0,0,.3.063l6.253-.842v1.342l-6.214.837L3.4,38.727ZM3.4,41.01l1.687-.172,3.4,2.057a.462.462,0,0,0,.3.063l6.253-.842v1.342L8.828,44.3Zm25.512.58-7.2.971V41.219l4.239-.571Zm0-2.283-2.966.4h-.007l-4.231.57V38.936l4.239-.571Zm-2.966-1.883h-.007l-4.231.57V36.653l4.239-.571,2.965.943Z" transform="translate(-1.499 -31.397)" fill="#454545"/>
  </g>
</svg>
