<svg xmlns="http://www.w3.org/2000/svg" xmlns:xlink="http://www.w3.org/1999/xlink" width="20" height="20" viewBox="0 0 20 20">
  <defs>
    <clipPath id="clip-depositbycrypto">
      <rect width="20" height="20"/>
    </clipPath>
  </defs>
  <g id="depositbycrypto" clip-path="url(#clip-depositbycrypto)">
    <g id="Group_580" data-name="Group 580" transform="translate(-217.616 -602.599)">
      <path id="Path_474" data-name="Path 474" d="M22.838,16a6.837,6.837,0,1,0,6.837,6.837A6.845,6.845,0,0,0,22.838,16Zm0,12.819a5.982,5.982,0,1,1,5.982-5.982A5.989,5.989,0,0,1,22.838,28.82Z" transform="translate(204.779 589.762)" fill="#454545"/>
      <path id="Path_475" data-name="Path 475" d="M30.962,25.556a1.7,1.7,0,0,0-1.7-1.7v-.426a.426.426,0,0,0-.852,0v.426h-.852v-.426a.426.426,0,0,0-.852,0v.426H25.427a.426.426,0,1,0,0,.852h.426v4.258h-.426a.426.426,0,1,0,0,.852H26.7v.426a.426.426,0,0,0,.852,0v-.426h.852v.426a.426.426,0,1,0,.852,0v-.426a1.7,1.7,0,0,0,1.115-2.98A1.692,1.692,0,0,0,30.962,25.556ZM30.11,28.11a.853.853,0,0,1-.852.852H26.7v-1.7h2.555A.853.853,0,0,1,30.11,28.11Zm-3.406-1.7V24.7h2.555a.852.852,0,0,1,0,1.7Z" transform="translate(199.635 585.767)" fill="#454545"/>
      <path id="Path_476" data-name="Path 476" d="M21.545,12.6a8.49,8.49,0,0,0-2.194-5.29c1.527-1.114.28-2.525-.6-.6a8.489,8.489,0,0,0-5.29-2.194c.735-1.981-1.588-1.981-.854,0A8.491,8.491,0,0,0,7.313,6.71c-.883-1.921-2.13-.51-.6.6A8.49,8.49,0,0,0,4.515,12.6c-1.98-.734-1.98,1.588,0,.853a8.489,8.489,0,0,0,2.194,5.29c-1.921.9-.51,2.13.6.6A8.489,8.489,0,0,0,12.6,21.545c-.735,1.98,1.588,1.98.854,0a8.488,8.488,0,0,0,5.29-2.194c.883,1.921,2.13.51.6-.6a8.492,8.492,0,0,0,2.194-5.29C23.525,14.192,23.525,11.869,21.545,12.6ZM13.03,20.713a7.691,7.691,0,0,1-7.683-7.681v0a7.683,7.683,0,1,1,7.683,7.685Z" transform="translate(214.586 599.568)" fill="#454545"/>
    </g>
  </g>
</svg>
