<svg xmlns="http://www.w3.org/2000/svg" xmlns:xlink="http://www.w3.org/1999/xlink" width="30" height="23" viewBox="0 0 30 23"><defs><clipPath id="b"><rect width="30" height="23"/></clipPath></defs><g id="a" clip-path="url(#b)"><g transform="translate(-73.145 -70.447)"><path d="M315.976,113.2H314.8a1.344,1.344,0,0,1-1.342-1.342.545.545,0,1,1,1.09,0,.256.256,0,0,0,.253.253h1.179a.256.256,0,0,0,.253-.253v-.471a.256.256,0,0,0-.253-.253H314.8a1.344,1.344,0,0,1-1.342-1.342v-.475a1.343,1.343,0,0,1,1.342-1.342h1.179a1.344,1.344,0,0,1,1.342,1.342.545.545,0,0,1-1.09,0,.256.256,0,0,0-.253-.253H314.8a.256.256,0,0,0-.253.253v.471a.256.256,0,0,0,.253.253h1.179a1.345,1.345,0,0,1,1.342,1.345v.471a1.344,1.344,0,0,1-1.342,1.344Z" transform="translate(-227.513 -35.147)" fill="#454545"/><path d="M336.986,96.4a.545.545,0,0,1-.545-.545v-.813a.545.545,0,1,1,1.09,0v.813A.545.545,0,0,1,336.986,96.4Z" transform="translate(-249.113 -22.477)" fill="#454545"/><path d="M336.986,178.506a.545.545,0,0,1-.545-.545v-.813a.545.545,0,1,1,1.09,0v.813A.545.545,0,0,1,336.986,178.506Z" transform="translate(-249.113 -99.638)" fill="#454545"/><path d="M193.848,78.486H174.232a.545.545,0,0,1-.545-.545V69.047a.545.545,0,0,1,.545-.545h19.616a.545.545,0,0,1,.545.545v8.895A.544.544,0,0,1,193.848,78.486ZM174.777,77.4H193.3V69.591H174.777Z" transform="translate(-96.168 1.948)" fill="#454545"/><path d="M381.755,78.435a.547.547,0,0,1-.434-.878,7.409,7.409,0,0,0,0-8.233.545.545,0,1,1,.865-.662,8.487,8.487,0,0,1,0,9.558.536.536,0,0,1-.431.216Z" transform="translate(-291.183 2)" fill="#454545"/><path d="M270.94,78.491a.549.549,0,0,1-.433-.214,8.487,8.487,0,0,1,0-9.558.544.544,0,1,1,.865.66,7.409,7.409,0,0,0,0,8.233.542.542,0,0,1-.1.763.519.519,0,0,1-.329.116Z" transform="translate(-185.768 1.943)" fill="#454545"/><path d="M174.232,73.044a.545.545,0,1,1,0-1.09,2.884,2.884,0,0,0,2.881-2.879.545.545,0,1,1,1.09,0,3.975,3.975,0,0,1-3.97,3.968Z" transform="translate(-96.168 1.921)" fill="#454545"/><path d="M446.3,73.007a3.975,3.975,0,0,1-3.97-3.97.545.545,0,1,1,1.09,0,2.882,2.882,0,0,0,2.881,2.879.546.546,0,0,1,0,1.092Z" transform="translate(-348.621 1.958)" fill="#454545"/><path d="M177.658,163.767a.545.545,0,0,1-.545-.545,2.884,2.884,0,0,0-2.881-2.881.545.545,0,1,1,0-1.09,3.974,3.974,0,0,1,3.97,3.97.545.545,0,0,1-.545.545Z" transform="translate(-96.168 -83.332)" fill="#454545"/><path d="M442.916,163.767a.545.545,0,0,1-.545-.545,3.974,3.974,0,0,1,3.97-3.97.545.545,0,0,1,0,1.09,2.884,2.884,0,0,0-2.881,2.881A.545.545,0,0,1,442.916,163.767Z" transform="translate(-348.659 -83.332)" fill="#454545"/><path d="M117.48,302.418a2.293,2.293,0,0,1-.726-.118l-10.486-3.478a1.376,1.376,0,0,0-1.035.074l-3.345,1.641a.545.545,0,0,1-.479-.978l3.341-1.639a2.461,2.461,0,0,1,1.861-.133l10.486,3.478a1.192,1.192,0,0,0,.708.017l.5-.14a2.4,2.4,0,0,0,.8-.392l10.579-7.858a.79.79,0,0,0,.3-.828l-.1-.4a.515.515,0,0,0-.5-.392.177.177,0,0,0-.1.028l-10.011,6.2a.55.55,0,0,1-.549.015l-3.613-1.985a.546.546,0,0,1,.525-.957l3.336,1.833,9.741-6.027a1.278,1.278,0,0,1,.673-.192,1.6,1.6,0,0,1,1.558,1.216l.1.4a1.882,1.882,0,0,1-.7,1.968l-10.579,7.858a3.533,3.533,0,0,1-1.164.569l-.5.137a2.345,2.345,0,0,1-.623.085Z" transform="translate(-27.96 -209.382)" fill="#454545"/><path d="M128.695,296.221l-2.456-.085a.545.545,0,0,1-.525-.564.555.555,0,0,1,.565-.525l2.43.087,5.995-.1a.558.558,0,0,0,.547-.512l.054-.628a.433.433,0,0,0-.379-.468l-11.567-1.464a1.436,1.436,0,0,0-.638.061l-6.734,2.295a.544.544,0,0,1-.351-1.031l6.736-2.3a2.555,2.555,0,0,1,1.124-.111l11.567,1.464a1.52,1.52,0,0,1,1.327,1.643l-.054.628a1.652,1.652,0,0,1-1.615,1.508Z" transform="translate(-41.268 -210.015)" fill="#454545"/><path d="M426.12,286.743a.546.546,0,0,1-.2-1.053l4.494-1.782a1.7,1.7,0,0,1,1.128-.009,1.924,1.924,0,0,1,1.286,1.813v.146a.545.545,0,1,1-1.09,0v-.146a.834.834,0,0,0-.555-.785.585.585,0,0,0-.386,0l-4.474,1.776a.567.567,0,0,1-.2.039Z" transform="translate(-332.876 -203.391)" fill="#454545"/></g></g></svg>