<svg xmlns="http://www.w3.org/2000/svg" xmlns:xlink="http://www.w3.org/1999/xlink" width="46" height="46" viewBox="0 0 46 46">
  <defs>
    <clipPath id="clip-dogecoin">
      <rect width="46" height="46"/>
    </clipPath>
  </defs>
  <g id="dogecoin" clip-path="url(#clip-dogecoin)">
    <g id="doge" transform="translate(0.139 -0.361)">
      <circle id="Ellipse_37" data-name="Ellipse 37" cx="23" cy="23" r="23" transform="translate(-0.139 0.361)" fill="#c3a634"/>
      <path id="Path_628" data-name="Path 628" d="M15.154,17.576H21.4v3.312h-6.25v6.98H19.1a9.866,9.866,0,0,0,3.831-.633,5.6,5.6,0,0,0,2.34-1.753,6.375,6.375,0,0,0,1.153-2.63,16.516,16.516,0,0,0,.3-3.263,16.516,16.516,0,0,0-.3-3.263,6.369,6.369,0,0,0-1.153-2.63,5.608,5.608,0,0,0-2.34-1.753,9.866,9.866,0,0,0-3.831-.633H15.154v6.266Zm-4.007,3.312H9v-3.31h2.147V8h9.488a10.588,10.588,0,0,1,4.552.908,8.485,8.485,0,0,1,3.141,2.485,10.672,10.672,0,0,1,1.811,3.684,16.613,16.613,0,0,1,.593,4.513,16.617,16.617,0,0,1-.594,4.513,10.634,10.634,0,0,1-1.811,3.684,8.469,8.469,0,0,1-3.139,2.485,10.571,10.571,0,0,1-4.552.908H11.147Z" transform="translate(4.039 3.59)" fill="#fff" fill-rule="evenodd"/>
    </g>
  </g>
</svg>
