<svg xmlns="http://www.w3.org/2000/svg" xmlns:xlink="http://www.w3.org/1999/xlink" width="23" height="15.137" viewBox="0 0 23 15.137">
  <defs>
    <filter id="Icon_awesome-chevron-up" x="0" y="0" width="23" height="15.137" filterUnits="userSpaceOnUse">
      <feOffset dy="1" input="SourceAlpha"/>
      <feGaussianBlur stdDeviation="0.5" result="blur"/>
      <feFlood flood-opacity="0.302"/>
      <feComposite operator="in" in2="blur"/>
      <feComposite in="SourceGraphic"/>
    </filter>
  </defs>
  <g transform="matrix(1, 0, 0, 1, 0, 0)" filter="url(#Icon_awesome-chevron-up)">
    <path id="Icon_awesome-chevron-up-2" data-name="Icon awesome-chevron-up" d="M11.175,20.5l8.9-8.9a1.1,1.1,0,0,0,0-1.554L19.038,9.005a1.1,1.1,0,0,0-1.553,0L10.4,16.057,3.311,9a1.1,1.1,0,0,0-1.553,0L.72,10.043a1.1,1.1,0,0,0,0,1.554l8.9,8.9A1.1,1.1,0,0,0,11.175,20.5Z" transform="translate(1.1 -8.18)" fill="#fff"/>
  </g>
</svg>
