<svg xmlns="http://www.w3.org/2000/svg" width="241.892" height="53.862" viewBox="0 0 241.892 53.862">
  <g id="Group_885" data-name="Group 885" transform="translate(0 0.403)">
    <path id="Subtraction_16" data-name="Subtraction 16" d="M170.2,472.542a25.528,25.528,0,0,1-18.5-7.786,26.215,26.215,0,0,1-5.478-8.425,27.676,27.676,0,0,1,0-20.6,26.254,26.254,0,0,1,5.478-8.446,25.5,25.5,0,0,1,18.5-7.794,27.607,27.607,0,0,1,9.1,1.5,25.178,25.178,0,0,1,6.521,3.386,1.158,1.158,0,0,1,.206,1.688,31.766,31.766,0,0,0-4.361,6.86,1.16,1.16,0,0,1-1.81.373,14.783,14.783,0,0,0-3.635-2.243,15.141,15.141,0,0,0-6.024-1.211,14.274,14.274,0,0,0-10.7,4.731,17.611,17.611,0,0,0,0,22.9,14.307,14.307,0,0,0,10.7,4.719,15.265,15.265,0,0,0,9.426-3.322,1.14,1.14,0,0,1,1.764.409,31.728,31.728,0,0,0,4.252,6.993,1.158,1.158,0,0,1-.247,1.687,25.213,25.213,0,0,1-6.371,3.182A27.725,27.725,0,0,1,170.2,472.542Z" transform="translate(-144.235 -419.487)" fill="#fff"/>
    <path id="Exclusion_1" data-name="Exclusion 1" d="M26.432,52.862A26.431,26.431,0,0,1,7.742,7.741,26.431,26.431,0,0,1,45.121,45.12,26.257,26.257,0,0,1,26.432,52.862Zm0-43.008A16.576,16.576,0,1,0,38.153,14.71,16.467,16.467,0,0,0,26.432,9.855Z" transform="translate(39.887 0.097)" fill="#fff" stroke="rgba(0,0,0,0)" stroke-miterlimit="10" stroke-width="1"/>
    <circle id="Ellipse_132" data-name="Ellipse 132" cx="8.347" cy="8.347" r="8.347" transform="translate(57.972 18.214)" fill="#fae99a"/>
    <g id="Group_881" data-name="Group 881" transform="translate(52.026 12.258)">
      <path id="Path_1300" data-name="Path 1300" d="M220.36,468.291l.719-1.975a12.139,12.139,0,0,0,2.908.5v2.1A14.178,14.178,0,0,1,220.36,468.291Z" transform="translate(-210.289 -440.374)" fill="#fae99a"/>
      <path id="Path_1301" data-name="Path 1301" d="M226.4,466.8a12.134,12.134,0,0,0,2.9-.522l.718,1.972a14.21,14.21,0,0,1-3.618.652Z" transform="translate(-211.402 -440.368)" fill="#fae99a"/>
      <path id="Path_1302" data-name="Path 1302" d="M214.95,465.588l1.35-1.6a12.205,12.205,0,0,0,2.562,1.468l-.718,1.971A14.325,14.325,0,0,1,214.95,465.588Z" transform="translate(-209.292 -439.944)" fill="#fae99a"/>
      <path id="Path_1303" data-name="Path 1303" d="M231.442,465.391a12.18,12.18,0,0,0,2.54-1.485l1.348,1.606a14.309,14.309,0,0,1-3.169,1.855Z" transform="translate(-212.331 -439.93)" fill="#fae99a"/>
      <path id="Path_1304" data-name="Path 1304" d="M210.814,461.248l1.818-1.049a12.264,12.264,0,0,0,1.91,2.253l-1.351,1.609A14.386,14.386,0,0,1,210.814,461.248Z" transform="translate(-208.53 -439.247)" fill="#fae99a"/>
      <path id="Path_1305" data-name="Path 1305" d="M235.768,462.368a12.257,12.257,0,0,0,1.884-2.256l1.818,1.049a14.393,14.393,0,0,1-2.351,2.814Z" transform="translate(-213.128 -439.231)" fill="#fae99a"/>
      <path id="Path_1306" data-name="Path 1306" d="M208.449,455.794l2.069-.366a12.086,12.086,0,0,0,1.024,2.774l-1.819,1.048a14.17,14.17,0,0,1-1.275-3.459Z" transform="translate(-208.094 -438.368)" fill="#fae99a"/>
      <path id="Path_1307" data-name="Path 1307" d="M238.872,458.115a12.065,12.065,0,0,0,1-2.763l2.069.365a14.161,14.161,0,0,1-1.251,3.448Z" transform="translate(-213.7 -438.354)" fill="#fae99a"/>
      <path id="Path_1308" data-name="Path 1308" d="M208.014,451.6a14.3,14.3,0,0,1,.118-1.81l2.069.365a11.839,11.839,0,0,0,.009,2.957l-2.07.366A14.311,14.311,0,0,1,208.014,451.6Z" transform="translate(-208.014 -437.328)" fill="#fae99a"/>
      <path id="Path_1309" data-name="Path 1309" d="M240.366,453.035a11.812,11.812,0,0,0,0-2.939l2.069-.365a13.762,13.762,0,0,1,.007,3.668Z" transform="translate(-213.976 -437.318)" fill="#fae99a"/>
      <path id="Path_1310" data-name="Path 1310" d="M208.43,447.438a14.135,14.135,0,0,1,1.259-3.466l1.819,1.049A12.066,12.066,0,0,0,210.5,447.8Z" transform="translate(-208.091 -436.257)" fill="#fae99a"/>
      <path id="Path_1311" data-name="Path 1311" d="M238.847,444.991l1.818-1.049a14.146,14.146,0,0,1,1.263,3.445l-2.07.365a12.085,12.085,0,0,0-1.012-2.761Z" transform="translate(-213.696 -436.251)" fill="#fae99a"/>
      <path id="Path_1312" data-name="Path 1312" d="M210.77,441.959a14.412,14.412,0,0,1,2.367-2.826l1.35,1.609a12.29,12.29,0,0,0-1.9,2.265Z" transform="translate(-208.522 -435.365)" fill="#fae99a"/>
      <path id="Path_1313" data-name="Path 1313" d="M235.727,440.731l1.351-1.609a14.372,14.372,0,0,1,2.361,2.811l-1.818,1.049a12.277,12.277,0,0,0-1.895-2.251Z" transform="translate(-213.121 -435.363)" fill="#fae99a"/>
      <path id="Path_1314" data-name="Path 1314" d="M214.888,437.693a14.279,14.279,0,0,1,3.187-1.85l.72,1.973a12.156,12.156,0,0,0-2.557,1.483Z" transform="translate(-209.281 -434.759)" fill="#fae99a"/>
      <path id="Path_1315" data-name="Path 1315" d="M231.384,437.813l.719-1.972a14.317,14.317,0,0,1,3.18,1.843l-1.349,1.6a12.182,12.182,0,0,0-2.55-1.475Z" transform="translate(-212.321 -434.759)" fill="#fae99a"/>
      <path id="Path_1316" data-name="Path 1316" d="M220.289,435.152a14.255,14.255,0,0,1,3.628-.638v2.1a12.12,12.12,0,0,0-2.91.513Z" transform="translate(-210.276 -434.514)" fill="#fae99a"/>
      <path id="Path_1317" data-name="Path 1317" d="M226.326,436.613v-2.1a14.211,14.211,0,0,1,3.624.636l-.719,1.974a12.155,12.155,0,0,0-2.9-.512Z" transform="translate(-211.389 -434.514)" fill="#fae99a"/>
    </g>
    <g id="Group_884" data-name="Group 884" transform="translate(98.056 0.037)">
      <path id="Path_1318" data-name="Path 1318" d="M321.582,419.56h-8.721a1.155,1.155,0,0,0-1.155,1.155V451.7l-17.378-31.563a1.155,1.155,0,0,0-1-.581h-8.231a1.155,1.155,0,0,0-1.155,1.155V471.34a1.155,1.155,0,0,0,1.155,1.155h8.646a1.155,1.155,0,0,0,1.156-1.155V441.2l17.677,30.716a1.156,1.156,0,0,0,1,.578h8.007a1.155,1.155,0,0,0,1.156-1.155V420.715A1.155,1.155,0,0,0,321.582,419.56Z" transform="translate(-268.035 -419.537)" fill="#fff"/>
      <path id="Path_1319" data-name="Path 1319" d="M359.362,441.9l-6.154-1.951c-5.1-1.426-5.553-3.9-5.553-5.253,0-3.077,2.855-5.178,6.679-5.178,3.982,0,6.2,1.881,6.611,4.826a1.166,1.166,0,0,0,1.144,1.028h8.683a1.164,1.164,0,0,0,1.157-1.242c-.6-9.158-7.889-14.593-17.445-14.593-9.906,0-17.783,6.229-17.783,15.46,0,4.731,1.951,11.257,13.358,14.859l6.229,1.726c5.178,1.5,6.3,3.527,6.229,5.854-.075,3.377-3.077,5.478-7.58,5.478-4.543,0-7-2.389-7.6-5.285a1.163,1.163,0,0,0-1.131-.944l-8.828,0a1.166,1.166,0,0,0-1.157,1.26c.653,8.643,8.044,14.729,18.714,14.729,9.231,0,18.386-4.953,18.612-15.159C373.771,452.628,371.9,445.5,359.362,441.9Z" transform="translate(-277.669 -419.532)" fill="#fff"/>
      <rect id="Rectangle_403" data-name="Rectangle 403" width="10.957" height="52.862" rx="1.416" transform="translate(0 0.023)" fill="#fff"/>
      <g id="Group_882" data-name="Group 882" transform="translate(101.94 0.022)">
        <path id="Path_1320" data-name="Path 1320" d="M405.562,464.221l4.655,4.655V465.5l-5.246-5.225-5.26,5.236v3.375l4.666-4.667A.841.841,0,0,1,405.562,464.221Z" transform="translate(-391.309 -427.062)" fill="#fae99a"/>
        <path id="Path_1321" data-name="Path 1321" d="M404.971,469.277l-5.26,5.236V480.5a1.155,1.155,0,0,0,1.155,1.155h8.2a1.155,1.155,0,0,0,1.156-1.155v-6Z" transform="translate(-391.309 -428.721)" fill="#fae99a"/>
        <path id="Path_1322" data-name="Path 1322" d="M397.813,454.043l4.666-4.667a.842.842,0,0,1,1.185,0l4.655,4.655V420.948a1.388,1.388,0,0,0-1.984-1.253l-16.266,7.747a1.156,1.156,0,0,0-.658,1.043v6.749a1.155,1.155,0,0,0,1.61,1.061l6.792-2.911Z" transform="translate(-389.411 -419.559)" fill="#fae99a"/>
      </g>
      <g id="Group_883" data-name="Group 883" transform="translate(124.927 0.022)">
        <path id="Path_1323" data-name="Path 1323" d="M438.4,464.53v-3.375l-4.681,4.681a.841.841,0,0,1-1.185,0l-4.64-4.64v3.374l5.235,5.21Z" transform="translate(-419.489 -427.224)" fill="#fae99a"/>
        <path id="Path_1324" data-name="Path 1324" d="M425.993,449.564l5.235,5.21,5.272-5.251V420.948a1.388,1.388,0,0,0-1.984-1.253l-16.266,7.747a1.156,1.156,0,0,0-.658,1.043v6.749a1.155,1.155,0,0,0,1.61,1.061l6.792-2.911Z" transform="translate(-417.591 -419.559)" fill="#fae99a"/>
        <path id="Path_1325" data-name="Path 1325" d="M433.716,474.836a.841.841,0,0,1-1.185,0l-4.64-4.64v10.467a1.155,1.155,0,0,0,1.155,1.155h8.2a1.155,1.155,0,0,0,1.156-1.155V470.155Z" transform="translate(-419.489 -428.883)" fill="#fae99a"/>
      </g>
    </g>
  </g>
</svg>
