<svg xmlns="http://www.w3.org/2000/svg" width="17.888" height="20" viewBox="0 0 17.888 20">
  <g id="noun_notification_2139042" transform="translate(-13 -9)">
    <path id="Path_420" data-name="Path 420" d="M19.137,26.64a2.85,2.85,0,0,0,5.615,0h3.9a2.232,2.232,0,0,0,.547-4.4,11.683,11.683,0,0,1-1.193-4.3l-.1-1.267a5.978,5.978,0,0,0-3.727-5.491,2.237,2.237,0,0,0-4.472,0,5.978,5.978,0,0,0-3.727,5.491l-.1,1.267a11.683,11.683,0,0,1-1.193,4.3,2.232,2.232,0,0,0,.547,4.4Zm2.807.87a1.377,1.377,0,0,1-1.242-.87h2.484A1.34,1.34,0,0,1,21.944,27.509Zm0-17.019a.724.724,0,0,1,.7.5H21.248A.724.724,0,0,1,21.944,10.491Zm-4.472,6.261V16.7A4.5,4.5,0,0,1,20.5,12.478H23.41A4.508,4.508,0,0,1,26.416,16.7l.1,1.342v.025a13.808,13.808,0,0,0,.994,4.075H16.379a14.883,14.883,0,0,0,.994-4.075ZM14.491,24.4a.738.738,0,0,1,.7-.745H28.677a.746.746,0,0,1-.05,1.491H15.236A.732.732,0,0,1,14.491,24.4Z" transform="translate(0)" fill="#a4a5a6"/>
    <path id="Path_421" data-name="Path 421" d="M63.774,10.067a.748.748,0,0,0-.679,1.334,6.349,6.349,0,0,1,3.448,5.637.755.755,0,1,0,1.51,0A7.758,7.758,0,0,0,63.774,10.067Z" transform="translate(-37.415 -0.74)" fill="#a4a5a6"/>
    <path id="Path_422" data-name="Path 422" d="M18.278,10.082A7.758,7.758,0,0,0,14,17.053a.755.755,0,1,0,1.51,0,6.282,6.282,0,0,1,3.448-5.612.731.731,0,0,0,.327-1.007A.754.754,0,0,0,18.278,10.082Z" transform="translate(-0.748 -0.755)" fill="#a4a5a6"/>
  </g>
</svg>
