<svg xmlns="http://www.w3.org/2000/svg" xmlns:xlink="http://www.w3.org/1999/xlink" width="30" height="30" viewBox="0 0 30 30">
  <defs>
    <clipPath id="clip-Home">
      <rect width="30" height="30"/>
    </clipPath>
  </defs>
  <g id="Home" clip-path="url(#clip-Home)">
    <g id="noun_Home_1773666" transform="translate(0.32 -137.317)">
      <path id="Path_48" data-name="Path 48" d="M89.826,125.109l-2.267-2.041c-.429-.386-.856-.773-1.285-1.156l-3-2.7q-1.553-1.4-3.1-2.793c-.55-.494-1.094-.993-1.65-1.483l-.024-.021a.822.822,0,0,0-1.137,0q-.668.62-1.336,1.237-1.469,1.364-2.94,2.725L70.1,121.646c-.48.445-.963.891-1.443,1.339q-1.107,1.022-2.208,2.047c-.027.027-.056.051-.083.078a.812.812,0,0,0,0,1.137.822.822,0,0,0,1.137,0l1.175-1.089v9.778a.559.559,0,0,0,.539.55H75.1a.546.546,0,0,0,.523-.55V128.6c0-.038.005-.075.005-.115,0-.089.008-.177.016-.266l.008-.064c-.019.091.011-.134,0-.011v.011c0-.005,0-.008,0-.013.016-.083.032-.166.051-.249a3.6,3.6,0,0,1,.121-.376c-.048.1.043-.118,0,0v0s0,0,0-.005c.016-.032.03-.064.046-.1q.056-.113.121-.217a1.741,1.741,0,0,1,.1-.148c.019-.027.04-.054.059-.08-.067.078.072-.1,0-.005l0,0,.005-.005a3.778,3.778,0,0,1,.3-.319c.024-.021.115-.129.148-.126l-.054.04c.019-.013.038-.027.056-.043l.086-.062a3.343,3.343,0,0,1,.368-.212.353.353,0,0,1,.1-.046c-.021.008-.043.019-.062.027.021-.008.043-.019.067-.027.067-.027.134-.048.2-.07s.115-.032.174-.048c.043-.011.215-.072.252-.048l-.07.008.072-.008c.038,0,.075-.008.113-.008.062-.005.126-.005.188-.005s.126,0,.188.005l.113.008.024,0a.061.061,0,0,0-.019,0,.407.407,0,0,1,.051.008l-.032,0,.016,0a3.273,3.273,0,0,1,.389.091c.07.021.137.043.2.07l.032.013a.185.185,0,0,0,.027.011.428.428,0,0,1-.054-.021c.021-.008.107.051.129.062a3.214,3.214,0,0,1,.335.2.994.994,0,0,1,.086.062l.03.021c.008.005.013.011.019.013a.435.435,0,0,0-.043-.032c.035,0,.129.11.161.137.1.1.2.2.29.306,0,0,0,.005.005.005l0,0c-.07-.1.07.08,0,.005.019.027.04.054.059.08.04.059.078.118.115.177s.07.123.1.188c.016.032.03.064.046.1,0,0,0,0,0,.005v0c-.043-.115.051.1,0,0a3.163,3.163,0,0,1,.129.41c.016.072.03.142.043.215v0c-.011-.129.021.118,0,0l.008.072c.008.089.011.18.011.268v6.454a.557.557,0,0,0,.537.55h5.883a.548.548,0,0,0,.526-.55v-9.746c.362.325.724.652,1.084.976.03.027.059.054.091.08a.805.805,0,1,0,1.137-1.14Z" transform="translate(-63.458 27.63)" fill="#797979"/>
    </g>
  </g>
</svg>
