<svg xmlns="http://www.w3.org/2000/svg" width="11.777" height="16.006" viewBox="0 0 11.777 16.006">
  <g id="Group_186" data-name="Group 186" transform="translate(-320.77 -208)">
    <g id="Group_184" data-name="Group 184" transform="translate(320.77 208)">
      <path id="Path_67" data-name="Path 67" d="M14.457,13a7.559,7.559,0,0,1-3.163,1.246.184.184,0,0,0-.1.288l2.108,4.5a.2.2,0,0,0,.383,0l.767-1.821c0-.1.1-.1.192-.1l1.917.575c.192,0,.288-.1.192-.288L14.744,13Z" transform="translate(-5.017 -3.215)" fill="#f4bb00"/>
      <path id="Path_68" data-name="Path 68" d="M3,17.507c-.1.192.1.288.192.288l1.917-.575c.1,0,.192,0,.192.1l.767,1.821a.2.2,0,0,0,.383,0l2.108-4.5a.184.184,0,0,0-.1-.288A9.1,9.1,0,0,1,5.3,13.1c-.1-.1-.192,0-.288.1Z" transform="translate(-2.973 -3.274)" fill="#f4bb00"/>
      <g id="Group_181" data-name="Group 181" transform="translate(0.032)">
        <path id="Path_69" data-name="Path 69" d="M9.75.5A5.75,5.75,0,1,0,15.5,6.25,5.767,5.767,0,0,0,9.75.5Zm0,9.584A3.833,3.833,0,1,1,13.584,6.25,3.845,3.845,0,0,1,9.75,10.084Z" transform="translate(-4 -0.5)" fill="#f4bb00"/>
      </g>
      <path id="Icon_ionic-md-star" data-name="Icon ionic-md-star" d="M6.871,9.2l1.9,1.146-.5-2.162L9.944,6.728l-2.211-.19L6.871,4.5,6.007,6.538l-2.21.19L5.474,8.181l-.5,2.162Z" transform="translate(-0.985 -1.983)" fill="#f4bb00"/>
    </g>
  </g>
</svg>
