<svg xmlns="http://www.w3.org/2000/svg" xmlns:xlink="http://www.w3.org/1999/xlink" width="30" height="30" viewBox="0 0 30 30">
  <defs>
    <clipPath id="clip-MyGame">
      <rect width="30" height="30"/>
    </clipPath>
  </defs>
  <g id="MyGame" clip-path="url(#clip-MyGame)">
    <g id="noun_Poker_Chips_1657566" data-name="noun_Poker Chips_1657566" transform="translate(-2.672 -3.005)">
      <g id="Group_133" data-name="Group 133" transform="translate(6.672 6.005)">
        <path id="Path_8" data-name="Path 8" d="M27.492,46.886v1.793a6.237,6.237,0,0,0,1.642,0V46.886a4.418,4.418,0,0,1-1.642,0Z" transform="translate(-21.868 -35.843)" fill="#797979"/>
        <path id="Path_9" data-name="Path 9" d="M36.233,45.637h0v1.848a6.4,6.4,0,0,0,1.795-.744l-1.307-1.307A4.686,4.686,0,0,1,36.233,45.637Z" transform="translate(-28.248 -34.783)" fill="#797979"/>
        <path id="Path_10" data-name="Path 10" d="M40.418,40.91l1.266,1.266a6.508,6.508,0,0,0,1.161-1.161l-1.266-1.267A4.7,4.7,0,0,1,40.418,40.91Z" transform="translate(-31.302 -30.633)" fill="#797979"/>
        <path id="Path_11" data-name="Path 11" d="M47.632,27.646a4.672,4.672,0,0,1-.077.821h1.793a6.3,6.3,0,0,0,0-1.642H47.555A4.67,4.67,0,0,1,47.632,27.646Z" transform="translate(-36.511 -21.201)" fill="#797979"/>
        <path id="Path_12" data-name="Path 12" d="M64.715,46.247V48.04a4.43,4.43,0,0,1,1.642,0V46.247a6.264,6.264,0,0,0-1.642,0Z" transform="translate(-49.036 -35.337)" fill="#797979"/>
        <path id="Path_13" data-name="Path 13" d="M49.306,48.733V46.884A6.465,6.465,0,0,0,44.589,51.6h1.849A4.691,4.691,0,0,1,49.306,48.733Z" transform="translate(-34.347 -35.842)" fill="#797979"/>
        <path id="Path_14" data-name="Path 14" d="M55.071,19.671V17.833q-.3.073-.589.175a7.085,7.085,0,0,1,.557,1.676Z" transform="translate(-41.567 -14.638)" fill="#797979"/>
        <path id="Path_15" data-name="Path 15" d="M19.98,47.486V45.637a4.692,4.692,0,0,1-.487-.2l-1.307,1.307A6.4,6.4,0,0,0,19.98,47.486Z" transform="translate(-15.076 -34.783)" fill="#797979"/>
        <path id="Path_16" data-name="Path 16" d="M57.065,63.318a3.956,3.956,0,1,0-3.956-3.956A3.96,3.96,0,0,0,57.065,63.318Z" transform="translate(-40.565 -42.062)" fill="#797979"/>
        <path id="Path_17" data-name="Path 17" d="M48.156,35.565H46.307a4.808,4.808,0,0,1-.2.488l1.307,1.308A6.418,6.418,0,0,0,48.156,35.565Z" transform="translate(-35.452 -27.58)" fill="#797979"/>
        <path id="Path_18" data-name="Path 18" d="M23.8,19.177a3.956,3.956,0,1,0-3.955,3.956A3.96,3.96,0,0,0,23.8,19.177Z" transform="translate(-13.399 -12.732)" fill="#797979"/>
        <path id="Path_19" data-name="Path 19" d="M73.412,24.533l1.266-1.266a6.524,6.524,0,0,0-1.161-1.161l-1.266,1.266A4.713,4.713,0,0,1,73.412,24.533Z" transform="translate(-54.536 -17.757)" fill="#797979"/>
        <path id="Path_20" data-name="Path 20" d="M78.136,30.427h1.849a6.409,6.409,0,0,0-.745-1.795L77.933,29.94A4.647,4.647,0,0,1,78.136,30.427Z" transform="translate(-58.684 -22.52)" fill="#797979"/>
        <path id="Path_21" data-name="Path 21" d="M81.7,46.681H80.282a7.221,7.221,0,0,1,1.17.786A6.357,6.357,0,0,0,81.7,46.681Z" transform="translate(-60.398 -35.693)" fill="#797979"/>
        <path id="Path_22" data-name="Path 22" d="M79.46,38.76a4.692,4.692,0,0,1-.073.821h1.79a6.418,6.418,0,0,0,.054-.821,6.289,6.289,0,0,0-.055-.821H79.384A4.672,4.672,0,0,1,79.46,38.76Z" transform="translate(-59.743 -29.313)" fill="#797979"/>
        <path id="Path_23" data-name="Path 23" d="M69.861,18.556a6.407,6.407,0,0,0-1.795-.744v1.849a4.792,4.792,0,0,1,.487.2Z" transform="translate(-51.482 -14.623)" fill="#797979"/>
        <path id="Path_24" data-name="Path 24" d="M43.948,67.011a6.266,6.266,0,0,0,0,1.642h1.793a4.417,4.417,0,0,1,0-1.642Z" transform="translate(-33.839 -50.532)" fill="#797979"/>
        <path id="Path_25" data-name="Path 25" d="M28.872,54.747a7.13,7.13,0,0,1-2.48.443,7.208,7.208,0,0,1-1.407-.14,3.321,3.321,0,0,0,4.3,4.042c0-.07-.005-.14-.005-.211a7.124,7.124,0,0,1,.591-2.846A7.16,7.16,0,0,1,28.872,54.747Z" transform="translate(-19.947 -41.581)" fill="#797979"/>
        <path id="Path_26" data-name="Path 26" d="M49.642,32.25a3.947,3.947,0,0,0,.278.42,7.143,7.143,0,0,1,6.963-1.293,3.948,3.948,0,0,0-5.27-4.755c.02.22.032.442.032.667A7.138,7.138,0,0,1,49.642,32.25Z" transform="translate(-38.035 -20.844)" fill="#797979"/>
        <path id="Path_27" data-name="Path 27" d="M60.967,18.966V17.173a6.069,6.069,0,0,0-1.642,0v1.791a4.7,4.7,0,0,1,.821-.078A4.651,4.651,0,0,1,60.967,18.966Z" transform="translate(-45.102 -14.117)" fill="#797979"/>
        <path id="Path_28" data-name="Path 28" d="M43.943,50.5a4.825,4.825,0,0,1-.284-.411,7.2,7.2,0,0,1-1.481.971,6.442,6.442,0,0,0,.676.894A7.187,7.187,0,0,1,43.943,50.5Z" transform="translate(-32.587 -38.184)" fill="#797979"/>
        <path id="Path_29" data-name="Path 29" d="M35.6,73.736a3.95,3.95,0,0,1-.58-.046v2.42c.191.017.384.028.58.028a6.436,6.436,0,0,0,1.874-.283,7.111,7.111,0,0,1-.713-2.29A4.022,4.022,0,0,1,35.6,73.736Z" transform="translate(-27.365 -55.315)" fill="#797979"/>
        <path id="Path_30" data-name="Path 30" d="M46.438,75.752H44.589a6.464,6.464,0,0,0,4.717,4.717V78.62A4.688,4.688,0,0,1,46.438,75.752Z" transform="translate(-34.347 -56.912)" fill="#797979"/>
        <path id="Path_31" data-name="Path 31" d="M15.822,61.29H13.4a6.431,6.431,0,0,0,1.943,4.074l1.556-1.84A4.032,4.032,0,0,1,15.822,61.29Z" transform="translate(-11.586 -46.356)" fill="#797979"/>
        <path id="Path_32" data-name="Path 32" d="M22.613,73.15a6.41,6.41,0,0,0,2.633,1.212V71.875a4.038,4.038,0,0,1-1.079-.562Z" transform="translate(-18.307 -53.672)" fill="#797979"/>
        <path id="Path_33" data-name="Path 33" d="M64.713,87.073v1.793a6.448,6.448,0,0,0,.821.054,6.532,6.532,0,0,0,.821-.054V87.073a4.434,4.434,0,0,1-1.642,0Z" transform="translate(-49.035 -65.174)" fill="#797979"/>
        <path id="Path_34" data-name="Path 34" d="M15.87,52.246a7.158,7.158,0,0,1-2.167-1.1,6.389,6.389,0,0,0-.377,2.021h2.4A4.029,4.029,0,0,1,15.87,52.246Z" transform="translate(-11.529 -38.952)" fill="#797979"/>
        <path id="Path_35" data-name="Path 35" d="M73.456,78.62v1.849a6.468,6.468,0,0,0,4.718-4.717h-1.85A4.69,4.69,0,0,1,73.456,78.62Z" transform="translate(-55.416 -56.912)" fill="#797979"/>
        <path id="Path_36" data-name="Path 36" d="M73.456,46.884v1.85A4.69,4.69,0,0,1,76.324,51.6h1.849A6.465,6.465,0,0,0,73.456,46.884Z" transform="translate(-55.416 -35.842)" fill="#797979"/>
        <path id="Path_37" data-name="Path 37" d="M84.854,67.832a4.651,4.651,0,0,1-.077.821H86.57a6.3,6.3,0,0,0,0-1.642H84.777A4.672,4.672,0,0,1,84.854,67.832Z" transform="translate(-63.679 -50.532)" fill="#797979"/>
        <path id="Path_38" data-name="Path 38" d="M8.442,27.646a4.675,4.675,0,0,1,.077-.821H6.726a6.268,6.268,0,0,0,0,1.642H8.519A4.68,4.68,0,0,1,8.442,27.646Z" transform="translate(-6.672 -21.201)" fill="#797979"/>
        <path id="Path_39" data-name="Path 39" d="M29.134,7.852V6.059a6.266,6.266,0,0,0-1.642,0V7.852a4.432,4.432,0,0,1,1.642,0Z" transform="translate(-21.868 -6.005)" fill="#797979"/>
        <path id="Path_40" data-name="Path 40" d="M38.029,7.442A6.392,6.392,0,0,0,36.234,6.7V8.547a4.744,4.744,0,0,1,.487.2Z" transform="translate(-28.249 -6.511)" fill="#797979"/>
        <path id="Path_41" data-name="Path 41" d="M41.581,13.421l1.266-1.266a6.5,6.5,0,0,0-1.161-1.161L40.42,12.26A4.722,4.722,0,0,1,41.581,13.421Z" transform="translate(-31.304 -9.646)" fill="#797979"/>
        <path id="Path_42" data-name="Path 42" d="M19.98,8.547V6.7a6.411,6.411,0,0,0-1.794.744L19.493,8.75A4.879,4.879,0,0,1,19.98,8.547Z" transform="translate(-15.076 -6.511)" fill="#797979"/>
        <path id="Path_43" data-name="Path 43" d="M12.821,42.178l1.266-1.266a4.714,4.714,0,0,1-1.162-1.161L11.66,41.017A6.515,6.515,0,0,0,12.821,42.178Z" transform="translate(-10.313 -30.635)" fill="#797979"/>
        <path id="Path_44" data-name="Path 44" d="M14.088,12.257l-1.266-1.266a6.506,6.506,0,0,0-1.161,1.161l1.266,1.266A4.729,4.729,0,0,1,14.088,12.257Z" transform="translate(-10.313 -9.644)" fill="#797979"/>
        <path id="Path_45" data-name="Path 45" d="M46.3,19.314h1.85a6.4,6.4,0,0,0-.745-1.795L46.1,18.826A4.493,4.493,0,0,1,46.3,19.314Z" transform="translate(-35.45 -14.409)" fill="#797979"/>
        <path id="Path_46" data-name="Path 46" d="M9.216,35.565H7.367a6.4,6.4,0,0,0,.745,1.8l1.307-1.308A4.557,4.557,0,0,1,9.216,35.565Z" transform="translate(-7.179 -27.58)" fill="#797979"/>
        <path id="Path_47" data-name="Path 47" d="M9.418,18.825,8.11,17.518a6.41,6.41,0,0,0-.744,1.795H9.215A4.689,4.689,0,0,1,9.418,18.825Z" transform="translate(-7.179 -14.408)" fill="#797979"/>
      </g>
    </g>
  </g>
</svg>
