<svg xmlns="http://www.w3.org/2000/svg" width="28.359" height="24.901" viewBox="0 0 28.359 24.901">
  <g id="Group_152" data-name="Group 152" transform="translate(-267 -42.556)">
    <g id="Group_151" data-name="Group 151" transform="translate(-32.363)">
      <g id="noun_Purse_3362985" transform="translate(299.363 42.341)">
        <g id="Group_125" data-name="Group 125" transform="translate(0 0.215)">
          <path id="Path_1" data-name="Path 1" d="M21.731,10.1l1.93-.084a.9.9,0,0,0,.671-.839V6.826H3.524a.74.74,0,0,1-.755-.671A.752.752,0,0,1,3.524,5.4h3.86l2.685-1.259H2.349a.931.931,0,0,0-.923.923V22.851a.931.931,0,0,0,.923.923h21.06a.931.931,0,0,0,.923-.923V18.74a.931.931,0,0,0-.923-.923H20.556a2.276,2.276,0,0,1-2.265-2.349v-3.1C18.291,10.266,20.053,10.1,21.731,10.1ZM10.656,5.4h9.229L18.123,1.875Zm10.824,0h2.853V5.064a.931.931,0,0,0-.923-.923h-2.6ZM20.137,2.714h3.272a2.329,2.329,0,0,1,2.265,2.349V9.175a1.807,1.807,0,0,1-.168.923h.5a2.329,2.329,0,0,1,2.349,2.265v3.1a2.4,2.4,0,0,1-2.349,2.349h-.5a1.66,1.66,0,0,1,.168.923v4.111a2.256,2.256,0,0,1-2.265,2.265H2.349A2.329,2.329,0,0,1,0,22.851V5.064A2.4,2.4,0,0,1,2.349,2.714H13.005l5.2-2.433a.705.705,0,0,1,.923.336Zm5.873,8.81H20.556a.793.793,0,0,0-.839.839v3.1a.862.862,0,0,0,.839.923H26.01a.931.931,0,0,0,.923-.923v-3.1A.862.862,0,0,0,26.01,11.524Z" transform="translate(0 -0.215)" fill="#454545"/>
          <circle id="Ellipse_1" data-name="Ellipse 1" cx="1.091" cy="1.091" r="1.091" transform="translate(21.144 12.651)" fill="#454545"/>
        </g>
      </g>
    </g>
  </g>
</svg>
