<svg xmlns="http://www.w3.org/2000/svg" width="90" height="144" viewBox="0 0 90 144"><g transform="translate(-162 -209)"><ellipse cx="9.5" cy="2" rx="9.5" ry="2" transform="translate(162 349)" fill="#f0eded"/><ellipse cx="9.5" cy="2" rx="9.5" ry="2" transform="translate(233 349)" fill="#f0eded"/><g transform="translate(180.5 222)" fill="none" stroke="#ced4d6" stroke-width="3"><circle cx="26.5" cy="26.5" r="26.5" stroke="none"/><circle cx="26.5" cy="26.5" r="25" fill="none"/></g><g transform="translate(167.5 209)" fill="none" stroke="#ced4d6" stroke-width="3"><circle cx="39.5" cy="39.5" r="39.5" stroke="none"/><circle cx="39.5" cy="39.5" r="38" fill="none"/></g><g transform="translate(171.091 237.727)"><g transform="translate(18.409 14.273)" fill="#fff"><path d="M 38.59851837158203 49.5 L 35 49.5 L 0 49.5 L -3.598520040512085 49.5 L -2.342869997024536 46.12765884399414 L 15.15713024139404 -0.8723400235176086 L 17.5 -7.164609909057617 L 19.84287071228027 -0.8723400235176086 L 37.34286880493164 46.12765884399414 L 38.59851837158203 49.5 Z" stroke="none"/><path d="M 17.5 0 L 0 47 L 35 47 L 17.5 0 M 17.5 -14.3292236328125 L 42.19704437255859 52 L -7.197044372558594 52 L 17.5 -14.3292236328125 Z" stroke="none" fill="#fff"/></g><g transform="translate(0 15.082)"><line x1="35.909" y2="96.236" fill="none" stroke="#492973" stroke-linecap="round" stroke-width="4"/><line x2="35.909" y2="96.236" transform="translate(35.909)" fill="none" stroke="#492973" stroke-linecap="round" stroke-width="4"/><line x2="48.836" y2="44.527" transform="translate(20.109 43.091)" fill="none" stroke="#492973" stroke-linecap="round" stroke-width="3"/><line x1="48.836" y2="44.527" transform="translate(2.873 44.527)" fill="none" stroke="#492973" stroke-linecap="round" stroke-width="3"/></g><circle cx="8.5" cy="8.5" r="8.5" transform="translate(27.409 2.273)" fill="#492973"/></g><g transform="translate(165.921 214.047)"><g transform="translate(0.078 0.953)"><circle cx="10" cy="10" r="10" transform="translate(0 0)" fill="#ea3943"/><g transform="translate(6 6)"><line x1="7.736" y2="7.736" transform="translate(0 0)" fill="none" stroke="#fff" stroke-linecap="round" stroke-width="1.5"/><line x2="7.736" y2="7.736" transform="translate(0 0)" fill="none" stroke="#fff" stroke-linecap="round" stroke-width="1.5"/></g></g></g></g></svg>