<svg xmlns="http://www.w3.org/2000/svg" width="76.862" height="73.156" viewBox="0 0 76.862 73.156">
  <g id="Group_716" data-name="Group 716" transform="translate(-167 -210)">
    <g id="Group_626" data-name="Group 626" transform="translate(167 210)">
      <g id="Group_228" data-name="Group 228" transform="translate(0 0)">
        <g id="Ellipse_9" data-name="Ellipse 9" transform="translate(0)" fill="none" stroke="#e73b48" stroke-width="2">
          <circle cx="36.578" cy="36.578" r="36.578" stroke="none"/>
          <circle cx="36.578" cy="36.578" r="35.578" fill="none"/>
        </g>
        <g id="Group_631" data-name="Group 631" transform="translate(2.161 2)">
          <g id="Ellipse_47" data-name="Ellipse 47" transform="translate(55.862 6.004)" fill="#ea3943" stroke="#fff" stroke-width="1">
            <circle cx="9.419" cy="9.419" r="9.419" stroke="none"/>
            <circle cx="9.419" cy="9.419" r="8.919" fill="none"/>
          </g>
        </g>
      </g>
    </g>
    <g id="noun_Coins_918996" transform="translate(190.898 232.006)">
      <g id="Group_128" data-name="Group 128" transform="translate(1.102 -0.006)">
        <path id="Path_4" data-name="Path 4" d="M18.734,964.362c-5.743,0-10.435,2.256-10.723,5.092.161,1.588,1.843,2.691,2.935,3.259a17.785,17.785,0,0,0,7.787,1.629,21.115,21.115,0,0,0,2.516-.156,11.844,11.844,0,0,1,7.608-3.295,3.543,3.543,0,0,0,.6-1.414C28.875,965.308,21.631,964.348,18.734,964.362Zm10.734,7.667A10.734,10.734,0,1,0,40.2,982.764,10.734,10.734,0,0,0,29.469,972.03Zm-21.457.491v1.57c.118,1.129,1.115,2.29,2.935,3.211a17.494,17.494,0,0,0,7.272,1.617,11.867,11.867,0,0,1,1.593-3.079c-.355.017-.714.024-1.078.024a19.149,19.149,0,0,1-8.482-1.785A9.225,9.225,0,0,1,8.012,972.521Zm0,4.6v1.57c.118,1.129,1.115,2.29,2.935,3.211a17.081,17.081,0,0,0,6.661,1.605c-.015-.246-.024-.493-.024-.743a11.942,11.942,0,0,1,.228-2.324,18.644,18.644,0,0,1-7.56-1.773A9.185,9.185,0,0,1,8.012,977.121Zm0,4.6c0,.52,0,1.055,0,1.569.118,1.129,1.115,2.29,2.935,3.211a18.062,18.062,0,0,0,7.919,1.629A11.808,11.808,0,0,1,17.8,985.04a18.636,18.636,0,0,1-7.548-1.773A9.2,9.2,0,0,1,8.012,981.722ZM8,986.322v1.809c0,2.964,4.808,5.367,10.734,5.367a19.877,19.877,0,0,0,4.648-.539,11.93,11.93,0,0,1-3.618-3.331c-.34.016-.681.036-1.03.036a19.149,19.149,0,0,1-8.482-1.8A9.208,9.208,0,0,1,8,986.322Z" transform="translate(-8 -964.362)" fill="#ea3943"/>
      </g>
    </g>
    <g id="Group_711" data-name="Group 711" transform="translate(-2 -84)">
      <line id="Line_225" data-name="Line 225" x1="6" y2="6" transform="translate(233.5 308.5)" fill="none" stroke="#fff" stroke-linecap="round" stroke-width="1.2"/>
      <line id="Line_226" data-name="Line 226" x2="6" y2="6" transform="translate(233.5 308.5)" fill="none" stroke="#fff" stroke-linecap="round" stroke-width="1.2"/>
    </g>
  </g>
</svg>
