<svg xmlns="http://www.w3.org/2000/svg" xmlns:xlink="http://www.w3.org/1999/xlink" width="40" height="40" viewBox="0 0 40 40">
  <defs>
    <clipPath id="clip-paytm">
      <rect width="40" height="40"/>
    </clipPath>
  </defs>
  <g id="paytm" clip-path="url(#clip-paytm)">
    <g id="_1220356_paytm_icon" data-name="1220356_paytm_icon" transform="translate(-13.927 -153.418)">
      <path id="Path_507" data-name="Path 507" d="M362.624,190.563l.311-.249a2.294,2.294,0,0,1,3.391.272c.093.109.14.117.233.023.062-.07.132-.124.194-.194a2.354,2.354,0,0,1,4.029,1.672c.016,2.232.008,4.457.008,6.689a1.193,1.193,0,0,1-1.276,1.291c-.311,0-.622-.023-.933.008s-.412-.07-.412-.4c.016-2.178.008-4.356.008-6.534v-.272c-.008-.506-.21-.716-.692-.739a.71.71,0,0,0-.786.685c-.008.1,0,.21,0,.311v5.639a1.18,1.18,0,0,1-1.3,1.3c-.42-.008-.988.187-1.229-.086-.21-.233-.07-.786-.07-1.2v-5.795c0-.685-.443-1.035-1.019-.8a.773.773,0,0,0-.474.809c.008,1.8,0,3.6,0,5.406v.428a1.188,1.188,0,0,1-1.252,1.237c-.311.008-.622-.023-.933.008-.334.031-.436-.062-.428-.42.016-3.057.008-6.114.008-9.179,0-.132.008-.257,0-.389-.016-.171.054-.226.226-.226.716.008,1.423.008,2.139,0,.179,0,.264.047.249.241A3.232,3.232,0,0,0,362.624,190.563Z" transform="translate(-317.868 -20.026)" fill="#02b9ef"/>
      <path id="Path_508" data-name="Path 508" d="M108.573,196.6v3.189a1.892,1.892,0,0,1-2.116,2.108c-.607,0-1.221.008-1.828,0a2.11,2.11,0,0,1-2.194-2.061,24.992,24.992,0,0,1-.008-2.645,2.239,2.239,0,0,1,2.3-2.162c.334-.008.677,0,1.011,0s.451-.194.443-.506-.14-.451-.451-.436q-.525.012-1.05,0a1.2,1.2,0,0,1-1.322-1.322c0-.342-.156-.8.07-1,.194-.171.638-.062.972-.062.871-.008,1.735,0,2.606,0a1.49,1.49,0,0,1,1.563,1.563C108.581,194.363,108.573,195.483,108.573,196.6Zm-2.38,1.766v-.389c0-.793,0-.793-.793-.762a.575.575,0,0,0-.622.63c-.008.327-.008.646,0,.972.008.56.257.708,1.066.731.6.016.3-.4.35-.638A4.237,4.237,0,0,0,106.193,198.361Z" transform="translate(-80.308 -21.842)" fill="#06306f"/>
      <path id="Path_509" data-name="Path 509" d="M197.724,196.136c0,1.19.016,2.388-.008,3.578a2.336,2.336,0,0,1-1.12,2.24,2.5,2.5,0,0,1-1.151.311c-.895.016-1.789,0-2.684.016-.218,0-.264-.078-.257-.272.016-.327-.008-.646.008-.972a1.134,1.134,0,0,1,1.112-1.12c.4-.016.8-.008,1.206,0,.327,0,.506-.132.506-.482s-.171-.482-.5-.49a6.329,6.329,0,0,1-1.626-.093,2.167,2.167,0,0,1-1.626-2c-.047-1.517-.016-3.034-.023-4.55,0-.171.054-.226.226-.218.638.008,1.268.016,1.906,0,.28-.008.241.148.241.319v3.423c0,.5.233.762.669.778.513.016.739-.194.739-.716,0-1.151.008-2.31-.008-3.461,0-.272.07-.35.342-.342.568.023,1.143.031,1.711,0,.311-.016.358.1.35.373C197.717,193.678,197.724,194.907,197.724,196.136Z" transform="translate(-162.536 -22.231)" fill="#06306f"/>
      <path id="Path_510" data-name="Path 510" d="M15.369,197.62v-3.811a1.85,1.85,0,0,1,2.015-2.007,13.479,13.479,0,0,1,2.442.062,2.03,2.03,0,0,1,1.7,2.069c.008,1.128,0,2.256,0,3.384a2.13,2.13,0,0,1-2.248,2.318c-.428.016-.856.008-1.283,0-.194-.008-.28.054-.272.264.016.311.008.622,0,.933a1.136,1.136,0,0,1-1.151,1.159c-.389.008-.879.163-1.128-.062-.233-.21-.062-.708-.07-1.081C15.361,199.774,15.369,198.693,15.369,197.62Zm2.349-1.906v.739c0,.879,0,.879.879.8a.54.54,0,0,0,.568-.6c.008-.436-.016-.879.008-1.315.047-1.26-.187-1.136-1.213-1.143-.187,0-.249.054-.249.241C17.726,194.858,17.718,195.286,17.718,195.714Z" transform="translate(0 -21.949)" fill="#06306f"/>
      <path id="Path_511" data-name="Path 511" d="M281.91,175.687c0-1.035-.008-2.077.008-3.111,0-.241-.054-.342-.319-.334-.35.016-.817.117-1.011-.054-.241-.226-.055-.708-.086-1.081v-.078c0-.366-.117-.793.039-1.066s.63-.1.965-.187a2.818,2.818,0,0,0,1.563-1.081,1.78,1.78,0,0,1,1.081-.7c.241-.047.389-.016.373.3-.023.436,0,.879-.008,1.322-.008.187.062.249.249.241.311-.008.622.008.933-.008.187-.008.249.062.241.249-.008.638-.008,1.268,0,1.906,0,.179-.047.272-.241.249a.585.585,0,0,0-.117,0c-.342.031-.817-.156-1,.078-.171.218-.062.669-.062,1.019,0,2.116-.008,4.224.008,6.339,0,.3-.078.389-.373.366-.28-.023-.568,0-.856-.008a1.365,1.365,0,0,1-1.392-1.439Z" transform="translate(-244.52 0)" fill="#02b9ef"/>
    </g>
  </g>
</svg>
