<svg xmlns="http://www.w3.org/2000/svg" xmlns:xlink="http://www.w3.org/1999/xlink" width="30" height="30" viewBox="0 0 30 30"><defs><clipPath id="b"><rect width="30" height="30"/></clipPath></defs><g id="a" clip-path="url(#b)"><path d="M3671.357-1582.3a3.829,3.829,0,0,1-1.484-.293,4.349,4.349,0,0,1-2.3-2.476,11.3,11.3,0,0,1,.5-8.324c1.617-3.888,4.675-6.6,7.435-6.6a3.817,3.817,0,0,1,1.469.287h.031a12.708,12.708,0,0,0,4.958,1.043h.064a12.774,12.774,0,0,0,4.958-1.043h.031a3.842,3.842,0,0,1,1.479-.289c2.765,0,5.818,2.716,7.425,6.605a12.581,12.581,0,0,1,.949,6.714,5,5,0,0,1-2.748,4.086,3.823,3.823,0,0,1-1.482.293,6.452,6.452,0,0,1-4.139-1.841,9.548,9.548,0,0,0-6.348-2.462h-.314a9.681,9.681,0,0,0-6.348,2.462A6.443,6.443,0,0,1,3671.357-1582.3Zm14.547-9.663a.817.817,0,0,0-.553.208.668.668,0,0,0-.3.51.917.917,0,0,0,.188.705l2.388,2.4a.773.773,0,0,0,.524.18.742.742,0,0,0,.517-.18l2.456-2.4a.772.772,0,0,0,.19-.639.782.782,0,0,0-.289-.535l-.043-.042a.844.844,0,0,0-.565-.213.784.784,0,0,0-.554.213l-.812.806v-4.316a.848.848,0,0,0-.883-.854.835.835,0,0,0-.858.854v4.316l-.842-.806a.828.828,0,0,0-.562-.208Zm-10.6-1.171v4.317a.834.834,0,0,0,.856.853.848.848,0,0,0,.885-.853v-4.317l.812.806a.778.778,0,0,0,.552.214.844.844,0,0,0,.567-.214l.035-.034.008-.008a.781.781,0,0,0,.29-.536.769.769,0,0,0-.19-.638l-2.458-2.4a.739.739,0,0,0-.516-.18.77.77,0,0,0-.524.18l-2.389,2.4a.914.914,0,0,0-.187.7.671.671,0,0,0,.3.512.815.815,0,0,0,.554.209.824.824,0,0,0,.562-.209l.84-.8Z" transform="translate(-3667 1606)" fill="#797979"/></g></svg>