<svg id="Component_7_2" data-name="Component 7 – 2" xmlns="http://www.w3.org/2000/svg" width="13" height="13" viewBox="0 0 13 13">
  <circle id="Ellipse_154" data-name="Ellipse 154" cx="6.5" cy="6.5" r="6.5" fill="#85bb65"/>
  <path id="Path_2230" data-name="Path 2230" d="M2.643-8.822v1.217A2.3,2.3,0,0,0,.512-5.286,2.294,2.294,0,0,0,2.353-3.034l.858.262c.714.227.869.534.858.887-.01.512-.424.83-1.045.83A.978.978,0,0,1,1.96-2H.44A2.318,2.318,0,0,0,2.643.4V1.708H3.4V.4A2.292,2.292,0,0,0,5.591-1.874c.031-.739-.228-1.819-1.955-2.365l-.848-.3c-.7-.216-.765-.591-.765-.8a.829.829,0,0,1,.92-.785.825.825,0,0,1,.92.887h1.51A2.243,2.243,0,0,0,3.4-7.594V-8.822Z" transform="translate(3.484 10.057)" fill="#fff"/>
</svg>
