<svg xmlns="http://www.w3.org/2000/svg" width="13.1" height="11.896" viewBox="0 0 13.1 11.896">
  <g id="Group_1953" data-name="Group 1953" transform="translate(-162.593 -330.136)">
    <path id="Path_2236" data-name="Path 2236" d="M2.922-8.822v1.371a2.594,2.594,0,0,0-2.4,2.613A2.584,2.584,0,0,0,2.6-2.3l.967.295c.8.256.979.6.967,1-.012.576-.478.935-1.177.935a1.1,1.1,0,0,1-1.2-1.063H.44a2.611,2.611,0,0,0,2.482,2.7V3.04h.851V1.567A2.582,2.582,0,0,0,6.242-1c.035-.833-.256-2.05-2.2-2.664l-.955-.333c-.792-.243-.862-.666-.862-.9A.933.933,0,0,1,3.26-5.773a.929.929,0,0,1,1.037,1H6A2.527,2.527,0,0,0,3.772-7.439V-8.822Z" transform="translate(165.594 338.971)" fill="#fd8326"/>
    <path id="Path_2238" data-name="Path 2238" d="M3.474,0A3.491,3.491,0,0,0,.868,1.187V0H0V2.605H2.605V1.737H1.537A2.579,2.579,0,0,1,3.474.868,2.608,2.608,0,0,1,6.079,3.474h.868A3.478,3.478,0,0,0,3.474,0Z" transform="matrix(-0.052, 0.999, -0.999, -0.052, 175.693, 335.095)" fill="#fd8326"/>
    <path id="Path_2239" data-name="Path 2239" d="M3.446,0A3.463,3.463,0,0,0,.861,1.178V0H0V2.584H2.584V1.723H1.525A2.558,2.558,0,0,1,3.446.861,2.587,2.587,0,0,1,6.03,3.446h.861A3.45,3.45,0,0,0,3.446,0Z" transform="translate(162.593 337.023) rotate(-88)" fill="#fd8326"/>
  </g>
</svg>
