<svg xmlns="http://www.w3.org/2000/svg" width="13.82" height="13.82" viewBox="0 0 13.82 13.82">
  <path id="Union_1" data-name="Union 1" d="M0,6.91a6.91,6.91,0,1,1,6.91,6.91A6.917,6.917,0,0,1,0,6.91Zm1.551,0A5.359,5.359,0,1,0,6.91,1.55,5.363,5.363,0,0,0,1.551,6.907ZM5.459,11.6l.247-.679a4.118,4.118,0,0,0,1,.172v.721A4.858,4.858,0,0,1,5.459,11.6Zm1.692-.509a4.2,4.2,0,0,0,1-.18l.246.677a4.872,4.872,0,0,1-1.243.224Zm-3.209-.272.464-.553a4.159,4.159,0,0,0,.881.5l-.246.678A4.918,4.918,0,0,1,3.942,10.818Zm4.625-.063a4.208,4.208,0,0,0,.874-.51L9.9,10.8a4.919,4.919,0,0,1-1.089.637ZM3.163,6.907A3.747,3.747,0,1,1,6.91,10.652,3.75,3.75,0,0,1,3.163,6.907ZM2.782,9.565,3.407,9.2a4.211,4.211,0,0,0,.656.775l-.464.553A4.963,4.963,0,0,1,2.782,9.565Zm7,.391a4.205,4.205,0,0,0,.647-.775l.626.361a4.974,4.974,0,0,1-.809.968ZM2.119,7.991l.711-.125a4.175,4.175,0,0,0,.352.954l-.625.361A4.825,4.825,0,0,1,2.119,7.991Zm8.531.8a4.151,4.151,0,0,0,.344-.95l.711.125a4.881,4.881,0,0,1-.429,1.186ZM2,6.907a4.874,4.874,0,0,1,.04-.622l.71.125a4.39,4.39,0,0,0-.029.5,4.208,4.208,0,0,0,.033.52l-.712.126A5.037,5.037,0,0,1,2,6.907Zm9.074.5a4.1,4.1,0,0,0,.031-.5,4.047,4.047,0,0,0-.033-.513l.712-.125a4.767,4.767,0,0,1,0,1.261ZM2.113,5.845a4.894,4.894,0,0,1,.433-1.191l.626.361a4.17,4.17,0,0,0-.346.956Zm8.531-.839.626-.361A4.891,4.891,0,0,1,11.7,5.83l-.712.125A4.2,4.2,0,0,0,10.644,5.006ZM2.769,4.268A4.922,4.922,0,0,1,3.583,3.3l.465.553a4.23,4.23,0,0,0-.653.779Zm7-.421.464-.554a4.953,4.953,0,0,1,.812.966l-.625.361A4.237,4.237,0,0,0,9.769,3.847ZM3.925,3.011a4.9,4.9,0,0,1,1.1-.636l.247.678a4.205,4.205,0,0,0-.879.509Zm4.626.041L8.8,2.374a4.933,4.933,0,0,1,1.094.633l-.464.552A4.2,4.2,0,0,0,8.551,3.052ZM7.133,2.723V2a4.887,4.887,0,0,1,1.246.219L8.132,2.9A4.17,4.17,0,0,0,7.133,2.723Zm-1.693-.5A4.91,4.91,0,0,1,6.687,2v.721a4.178,4.178,0,0,0-1,.177Z" fill="#fff"/>
</svg>
