<svg xmlns="http://www.w3.org/2000/svg" width="28.637" height="34.006" viewBox="0 0 28.637 34.006">
  <g id="noun_secure_2838532" transform="translate(-0.449)">
    <g id="Group_477" data-name="Group 477" transform="translate(0.449 0)">
      <path id="Path_554" data-name="Path 554" d="M45.22,19.193c0-.9-.043-1.8-.043-2.621a1.2,1.2,0,0,0-1.2-1.2c-5.07,0-8.98-1.461-12.2-4.6a1.25,1.25,0,0,0-1.676,0c-3.222,3.136-7.089,4.6-12.2,4.6a1.2,1.2,0,0,0-1.2,1.2c0,.816,0,1.719-.043,2.621-.172,8.55-.387,20.236,13.835,25.177a1.255,1.255,0,0,0,.387.086.639.639,0,0,0,.387-.086C45.563,39.43,45.348,27.743,45.22,19.193Zm-8.507,5.8-6.574,6.574a1.2,1.2,0,0,1-.859.344,1.364,1.364,0,0,1-.859-.344L25.155,28.3a1.185,1.185,0,0,1,1.676-1.676l2.449,2.449,5.757-5.757a1.185,1.185,0,0,1,1.676,1.676Z" transform="translate(-16.609 -10.45)" fill="#fff"/>
    </g>
  </g>
</svg>
