<svg xmlns="http://www.w3.org/2000/svg" width="73.845" height="82.248" viewBox="0 0 73.845 82.248"><g transform="translate(-167.5 -181.5)"><g transform="translate(4.422 -17.156)"><g transform="translate(161.578 197.156)"><path d="M73.845,38.422A35.422,35.422,0,1,1,38.422,3,35.422,35.422,0,0,1,73.845,38.422Z" transform="translate(0 0)" fill="none" stroke="#fa502c" stroke-linecap="round" stroke-linejoin="round" stroke-width="3"/><path d="M18,9V30.253l14.169,7.084" transform="translate(20.422 8.169)" fill="none" stroke="#fa502c" stroke-linecap="round" stroke-linejoin="round" stroke-width="3"/></g></g><g transform="translate(-3 -605.885)"><path d="M5435.676-3514.932c-3.8-1.633-4.807-8.078-2.3-14.314s7.592-10,11.39-8.37h.04a15.738,15.738,0,0,0,6.341,1.382h.081a15.885,15.885,0,0,0,6.341-1.382h.04c3.8-1.631,8.885,2.093,11.389,8.37h0c2.5,6.278,1.494,12.682-2.3,14.314-2.221.962-4.847.083-7.19-2.052a11.95,11.95,0,0,0-8.118-3.263h-.4a12.147,12.147,0,0,0-8.12,3.263,8.165,8.165,0,0,1-5.291,2.44A4.733,4.733,0,0,1,5435.676-3514.932Z" transform="translate(-5244.186 4383.385)" fill="#0f161f" stroke="#fff" stroke-width="1.5"/><g transform="translate(196.435 849.5)"><g transform="translate(0 0)"><path d="M9.282,10.35a.766.766,0,0,0,0-1.076L6.55,6.542a.775.775,0,0,0-1.076,0L2.742,9.288a.761.761,0,0,0,1.076,1.076L5.267,8.915V13.88a.759.759,0,0,0,1.518,0V8.915l1.449,1.449A.729.729,0,0,0,9.282,10.35Z" transform="translate(-2.525 -4.94)" fill="#fff" stroke="#fff" stroke-width="0.5"/></g></g><g transform="translate(218 859.199) rotate(-180)"><g transform="translate(0 0)"><path d="M6.757,4.025a.766.766,0,0,0,0-1.076L4.025.217a.775.775,0,0,0-1.076,0L.217,2.963a.775.775,0,0,0,0,1.076.775.775,0,0,0,1.076,0L2.742,2.59V7.555a.759.759,0,0,0,1.518,0V2.59L5.708,4.039A.729.729,0,0,0,6.757,4.025Z" transform="translate(0 0)" fill="#fff" stroke="#fff" stroke-width="0.5"/></g></g></g></g></svg>