<svg xmlns="http://www.w3.org/2000/svg" width="31" height="31" viewBox="0 0 31 31">
  <g id="Group_381" data-name="Group 381" transform="translate(-212 -252)">
    <g id="Ellipse_19" data-name="Ellipse 19" transform="translate(212 252)" fill="none" stroke="#2f84c6" stroke-width="2">
      <circle cx="15.5" cy="15.5" r="15.5" stroke="none"/>
      <circle cx="15.5" cy="15.5" r="14.5" fill="none"/>
    </g>
    <g id="noun_Telegram_1634539" transform="translate(217.998 260.304)">
      <path id="Path_449" data-name="Path 449" d="M24.8,13.5l-14.18,5.9s-.67.244-.619.693.6.656.6.656l3.568,1.274s1.077,3.747,1.289,4.46.382.728.382.728a.385.385,0,0,0,.377-.054l2.305-2.229,3.593,2.922a.923.923,0,0,0,1.325-.487l2.525-13.508C25.967,12.953,24.8,13.5,24.8,13.5Zm-2.51,12.778-3.844-3.126L17.254,24.3l.262-2.453,5.123-4.856-6.984,4.146-3.1-1.106,11.819-4.919Z" transform="translate(-10 -13.334)" fill="#2f84c6"/>
    </g>
  </g>
</svg>
