<svg xmlns="http://www.w3.org/2000/svg" width="120.157" height="124.029" viewBox="0 0 120.157 124.029"><g transform="translate(-147.707 -370.625)"><g transform="matrix(-0.259, -0.966, 0.966, -0.259, 167.641, 465.108)"><path d="M73.945,12.694V5.221A5.22,5.22,0,0,0,68.725,0H50.035V1.142a1.305,1.305,0,1,1-2.61,0V0H5.221A5.22,5.22,0,0,0,0,5.221V12.65a7.2,7.2,0,0,1,5.173,3.858,7.2,7.2,0,0,1,0,6.454A7.2,7.2,0,0,1,0,26.821V34.26A5.22,5.22,0,0,0,5.221,39.48h42.2V38.338a1.305,1.305,0,0,1,2.61,0V39.48H68.725a5.22,5.22,0,0,0,5.221-5.221V26.786a7.2,7.2,0,0,1,0-14.092ZM50.035,33.02a1.305,1.305,0,1,1-2.61,0V27.708a1.305,1.305,0,1,1,2.61,0Zm0-10.624a1.305,1.305,0,0,1-2.61,0V17.084a1.305,1.305,0,0,1,2.61,0Zm0-10.624h0a1.305,1.305,0,0,1-2.61,0V6.46a1.305,1.305,0,0,1,2.61,0Z" transform="translate(0 0)" fill="none" stroke="#a4a5a6" stroke-width="1.3"/></g><text transform="matrix(0.966, -0.259, 0.259, 0.966, 181.081, 434.752)" fill="#a4a5a6" font-size="16" font-family="AvertaStd-Semibold" font-weight="600"><tspan x="-2.16" y="0">!</tspan></text><path d="M-390.287,4004.567l28.5-53.041,8.007,2.652,11.695,38.013-7.8,16.569-33.517-1.029Z" transform="translate(556.503 -3541.009)" fill="#f3f5f6"/><g transform="translate(163.465 464.707) rotate(-60)"><path d="M107.06,18.379V7.558A7.557,7.557,0,0,0,99.5,0H72.442V1.653a1.89,1.89,0,1,1-3.779,0V0H7.558A7.557,7.557,0,0,0,0,7.558V18.315A10.42,10.42,0,0,1,7.49,23.9a10.422,10.422,0,0,1,0,9.344A10.42,10.42,0,0,1,0,38.831V49.6a7.557,7.557,0,0,0,7.558,7.558h61.1V55.507a1.89,1.89,0,0,1,3.779,0v1.653H99.5A7.557,7.557,0,0,0,107.06,49.6V38.782a10.421,10.421,0,0,1,0-20.4ZM72.442,47.807a1.89,1.89,0,1,1-3.779,0V40.116a1.89,1.89,0,1,1,3.779,0Zm0-15.382a1.89,1.89,0,1,1-3.779,0v-7.69a1.89,1.89,0,0,1,3.779,0Zm0-15.382h0a1.89,1.89,0,1,1-3.779,0V9.353a1.89,1.89,0,1,1,3.779,0Z" transform="translate(0 0)" fill="none" stroke="#797979" stroke-width="2"/></g><text transform="translate(204.224 452.135) rotate(30)" fill="#797979" font-size="27" font-family="SofiaPro-Medium, Sofia Pro" font-weight="500"><tspan x="-3.618" y="0">!</tspan></text></g></svg>