<svg xmlns="http://www.w3.org/2000/svg" width="80.227" height="73.845" viewBox="0 0 80.227 73.845">
  <g id="Group_754" data-name="Group 754" transform="translate(-167.078 -181.5)">
    <g id="Group_753" data-name="Group 753">
      <g id="Icon_feather-clock" data-name="Icon feather-clock" transform="translate(165.578 180)">
        <path id="Path_1258" data-name="Path 1258" d="M73.845,38.422A35.422,35.422,0,1,1,38.422,3,35.422,35.422,0,0,1,73.845,38.422Z" transform="translate(0 0)" fill="none" stroke="#fa502c" stroke-linecap="round" stroke-linejoin="round" stroke-width="3"/>
        <path id="Path_1259" data-name="Path 1259" d="M18,9V30.253l14.169,7.084" transform="translate(20.422 8.169)" fill="none" stroke="#fa502c" stroke-linecap="round" stroke-linejoin="round" stroke-width="3"/>
      </g>
      <g id="Path_1260" data-name="Path 1260" transform="translate(226 190.844)" fill="#fa502c">
        <path d="M 18.30048942565918 18.99999809265137 L 1.699509978294373 18.99999809265137 C 0.9833400249481201 18.99999809265137 0.3389500081539154 18.63149642944336 -0.0242299996316433 18.01424789428711 C -0.3874199986457825 17.39700698852539 -0.3966000080108643 16.65474700927734 -0.04879000037908554 16.02870750427246 L 8.251680374145508 1.087847113609314 C 8.604209899902344 0.4533071517944336 9.274120330810547 0.05912716686725616 10 0.05912716686725616 C 10.72587966918945 0.05912716686725616 11.39579010009766 0.4533071517944336 11.74831008911133 1.087837219238281 L 20.04879951477051 16.02871704101562 C 20.3966007232666 16.65474700927734 20.38742065429688 17.39700698852539 20.02422904968262 18.01424789428711 C 19.66105079650879 18.63149642944336 19.01666069030762 18.99999809265137 18.30048942565918 18.99999809265137 Z" stroke="none"/>
        <path d="M 10 1.05912971496582 C 9.658172607421875 1.05912971496582 9.31634521484375 1.230581283569336 9.125840187072754 1.573486328125 L 0.8253593444824219 16.51435661315918 C 0.4550590515136719 17.18088722229004 0.9370307922363281 17.99999618530273 1.69951057434082 17.99999618530273 L 18.30048942565918 17.99999618530273 C 19.06296920776367 17.99999618530273 19.54494094848633 17.18088722229004 19.17464065551758 16.51435661315918 L 10.87415981292725 1.573486328125 C 10.68365478515625 1.230581283569336 10.34182739257812 1.05912971496582 10 1.05912971496582 M 10 -0.9408721923828125 C 11.08880996704102 -0.9408721923828125 12.09367942810059 -0.3496131896972656 12.62245941162109 0.6021881103515625 L 20.92295074462891 15.54306697845459 C 21.44466018676758 16.48211669921875 21.43087959289551 17.59550666809082 20.88610076904297 18.52137756347656 C 20.3413200378418 19.44723701477051 19.37474060058594 19.99999618530273 18.30048942565918 19.99999618530273 L 1.69951057434082 19.99999618530273 C 0.6252593994140625 19.99999618530273 -0.3413200378417969 19.44723701477051 -0.8861007690429688 18.52137756347656 C -1.430879592895508 17.59550666809082 -1.444660186767578 16.48211669921875 -0.9229507446289062 15.54305744171143 L 7.377530097961426 0.6021976470947266 C 7.906279563903809 -0.3495922088623047 8.911160469055176 -0.9408721923828125 10 -0.9408721923828125 Z" stroke="none" fill="#fff"/>
      </g>
      <text id="_" data-name="!" transform="translate(236 206.844)" fill="#fff" font-size="13" font-family="Helvetica"><tspan x="-1.806" y="0">!</tspan></text>
    </g>
  </g>
</svg>
