<svg xmlns="http://www.w3.org/2000/svg" xmlns:xlink="http://www.w3.org/1999/xlink" width="50" height="40" viewBox="0 0 50 40"><defs><clipPath id="b"><rect width="50" height="40"/></clipPath></defs><g id="a" clip-path="url(#b)"><g transform="translate(-35.006 2.006)"><path d="M193.346,125.728v-1.892a10.256,10.256,0,0,0,4.587-8.521c0-5.7,0-10.32-6.88-10.32s-6.88,4.622-6.88,10.32a10.247,10.247,0,0,0,4.587,8.521v1.892c-7.783.638-13.76,4.458-13.76,9.08h32.106c0-4.622-5.977-8.442-13.76-9.08Z" transform="translate(-130.821 -98.121)" fill="#454545"/><path d="M46.73,28.5a21.767,21.767,0,0,1,7.16-2.881A12.65,12.65,0,0,1,52.442,23.5a13.1,13.1,0,0,1-1.67-6.307c0-3.082,0-6,1.1-8.378a7.466,7.466,0,0,1,5.7-4.278c-.6-2.745-2.222-4.544-6.514-4.544-6.88,0-6.88,4.622-6.88,10.32a10.247,10.247,0,0,0,4.587,8.521v1.892c-7.783.638-13.76,4.458-13.76,9.08H45A14.185,14.185,0,0,1,46.731,28.5Z" transform="translate(0)" fill="#454545"/><path d="M45.849,28.5a21.767,21.767,0,0,0-7.16-2.881A12.651,12.651,0,0,0,40.137,23.5a13.1,13.1,0,0,0,1.67-6.307c0-3.082,0-6-1.1-8.378a7.466,7.466,0,0,0-5.7-4.278c.6-2.745,2.222-4.544,6.514-4.544,6.88,0,6.88,4.622,6.88,10.32a10.247,10.247,0,0,1-4.587,8.521v1.892c7.783.638,13.76,4.458,13.76,9.08h-10A14.186,14.186,0,0,0,45.849,28.5Z" transform="translate(27.432 0)" fill="#454545"/></g></g></svg>