<svg xmlns="http://www.w3.org/2000/svg" width="19.743" height="13.82" viewBox="0 0 19.743 13.82">
  <path id="Icon_awesome-users" data-name="Icon awesome-users" d="M2.961,8.173A1.974,1.974,0,1,0,.987,6.2,1.976,1.976,0,0,0,2.961,8.173Zm13.82,0A1.974,1.974,0,1,0,14.807,6.2,1.976,1.976,0,0,0,16.782,8.173Zm.987.987H15.795a1.969,1.969,0,0,0-1.391.574,4.512,4.512,0,0,1,2.317,3.375h2.036a.986.986,0,0,0,.987-.987v-.987A1.976,1.976,0,0,0,17.769,9.16Zm-7.9,0A3.455,3.455,0,1,0,6.417,5.705,3.453,3.453,0,0,0,9.872,9.16Zm2.369.987h-.256a4.77,4.77,0,0,1-4.226,0H7.5A3.555,3.555,0,0,0,3.949,13.7v.888A1.481,1.481,0,0,0,5.429,16.07h8.884a1.481,1.481,0,0,0,1.481-1.481V13.7A3.555,3.555,0,0,0,12.241,10.147Zm-6.9-.413A1.969,1.969,0,0,0,3.949,9.16H1.974A1.976,1.976,0,0,0,0,11.134v.987a.986.986,0,0,0,.987.987H3.02A4.524,4.524,0,0,1,5.34,9.734Z" transform="translate(0 -2.25)" fill="#fff" opacity="0.6"/>
</svg>
