<svg xmlns="http://www.w3.org/2000/svg" width="46.372" height="12.799" viewBox="0 0 46.372 12.799">
  <g id="upi-ar21" transform="translate(-10.001 -16.199)">
    <path id="Path_657" data-name="Path 657" d="M95.678,28.645l6.641-6.059-3.146-6.268Z" transform="translate(-45.947 -0.064)" fill="#097939" fill-rule="evenodd"/>
    <path id="Path_658" data-name="Path 658" d="M90.854,28.645,97.5,22.587,94.35,16.319Z" transform="translate(-43.36 -0.064)" fill="#ed752e" fill-rule="evenodd"/>
    <path id="Path_659" data-name="Path 659" d="M15.755,16.325l-2.8,9.958,9.927.07,2.727-10.028h2.517L24.86,27.983a1.169,1.169,0,0,1-1.064.807H11.072a1,1,0,0,1-1.02-1.345l3.118-11.12Zm30.69-.07h2.517l-3.5,12.534H42.879ZM28.409,21.477l12.584-.07.839-2.646H29.038l.769-2.437L43.441,16.2a1.1,1.1,0,0,1,1.131,1.469l-1.285,4.695a2.126,2.126,0,0,1-1.943,1.483H30.087L28.76,29H26.312Z" transform="translate(0 0)" fill="#747474" fill-rule="evenodd"/>
  </g>
</svg>
