<svg xmlns="http://www.w3.org/2000/svg" xmlns:xlink="http://www.w3.org/1999/xlink" width="30" height="30" viewBox="0 0 30 30">
  <defs>
    <clipPath id="clip-wallet">
      <rect width="30" height="30"/>
    </clipPath>
  </defs>
  <g id="wallet" clip-path="url(#clip-wallet)">
    <g id="Group_572" data-name="Group 572" transform="translate(-6.278 0.444)">
      <path id="Subtraction_11" data-name="Subtraction 11" d="M23.113,24H2.319A2.285,2.285,0,0,1,0,21.816V18.74H1.408v3.076a.913.913,0,0,0,.911.89H23.113a.913.913,0,0,0,.911-.89V17.854a.913.913,0,0,0-.911-.89H20.3A2.227,2.227,0,0,1,18.059,14.7V11.708c0-2.015,1.753-2.183,3.4-2.183l1.905-.081a.88.88,0,0,0,.662-.808V6.371H3.479a.728.728,0,0,1-.745-.647A.738.738,0,0,1,3.479,5H7.29L9.941,3.784H2.319a.912.912,0,0,0-.911.889V9.1H0V4.673A2.352,2.352,0,0,1,2.319,2.408H12.84L17.977.063A.629.629,0,0,1,18.254,0a.727.727,0,0,1,.633.387l.995,2.021h3.231a2.281,2.281,0,0,1,2.236,2.264V8.636a1.7,1.7,0,0,1-.166.889h.5A2.285,2.285,0,0,1,28,11.708V14.7a2.353,2.353,0,0,1-2.32,2.264h-.5a1.579,1.579,0,0,1,.166.89v3.962a2.145,2.145,0,0,1-.652,1.547A2.252,2.252,0,0,1,23.113,24ZM20.3,10.9a.775.775,0,0,0-.828.809V14.7a.842.842,0,0,0,.828.89h5.385a.913.913,0,0,0,.912-.89V11.708a.846.846,0,0,0-.912-.809Zm.248-7.115L21.208,5h2.816V4.673a.912.912,0,0,0-.911-.889ZM17.894,1.6,10.521,5h9.112Zm4.059,12.7a1.052,1.052,0,1,1,1.077-1.051A1.065,1.065,0,0,1,21.953,14.3Z" transform="translate(7.278 2.556)" fill="#f3f5f6"/>
    </g>
  </g>
</svg>
