<svg xmlns="http://www.w3.org/2000/svg" width="31.009" height="30.529" viewBox="0 0 31.009 30.529">
  <g id="noun_whatsapp_3786431" transform="translate(0.509 0.5)">
    <g id="Iconos" transform="translate(0 0)">
      <path id="Path_450" data-name="Path 450" d="M39.41,37a1.356,1.356,0,0,0-.638-.459l-.179-.087c-.017,0-1.942-.95-2.308-1.083a.955.955,0,0,0-1.252.326c-.188.289-.756.944-1.018,1.242-.023.026-.04.038-.04.04a.473.473,0,0,1-.167-.061c-.058-.029-.141-.064-.239-.107a8.192,8.192,0,0,1-2.34-1.444A9.4,9.4,0,0,1,29.466,33.2l-.04-.046a1.082,1.082,0,0,1,.1-.1c.115-.113.239-.263.358-.4l.167-.2a2.389,2.389,0,0,0,.346-.546l.043-.09a1.015,1.015,0,0,0-.026-.965c-.052-.1-.4-.924-.646-1.525l-.366-.881c-.309-.731-.707-.823-1.076-.826h-.71a1.652,1.652,0,0,0-1.2.549l-.061.064A4.046,4.046,0,0,0,25.138,31.2a6.669,6.669,0,0,0,1.442,3.651l.049.072a14.782,14.782,0,0,0,5.807,5.011,19.4,19.4,0,0,0,1.936.7,4.729,4.729,0,0,0,1.417.214,5.534,5.534,0,0,0,.865-.069,3.841,3.841,0,0,0,2.6-1.837,2.927,2.927,0,0,0,.156-1.932Zm-.969,1.635a3.094,3.094,0,0,1-1.9,1.279,4.259,4.259,0,0,1-1.9-.116,19.211,19.211,0,0,1-1.855-.676A13.874,13.874,0,0,1,27.342,34.4c-.032-.046-.055-.078-.072-.1A5.959,5.959,0,0,1,26,31.184a3.2,3.2,0,0,1,.981-2.365l.069-.072a.8.8,0,0,1,.577-.271h.715c.092,0,.147,0,.271.289.092.217.228.537.369.866.378.907.612,1.467.669,1.583s.046.147.029.182l-.049.092a1.384,1.384,0,0,1-.225.364l-.176.211a4.331,4.331,0,0,1-.288.338.9.9,0,0,0-.213,1.2,10.219,10.219,0,0,0,1.936,2.374,9.083,9.083,0,0,0,2.57,1.6l.2.087a.948.948,0,0,0,1.235-.182c.167-.188.842-.968,1.088-1.329.023-.035.04-.052.043-.058a1.006,1.006,0,0,1,.2.058c.26.092,1.794.835,2.227,1.046l.188.092c.089.04.193.092.254.127A3.154,3.154,0,0,1,38.441,38.632Z" transform="translate(-17.211 -19.566)" fill="#39b200" stroke="#39b225" stroke-width="0.5"/>
      <path id="Path_451" data-name="Path 451" d="M12.572,14.191a14.5,14.5,0,0,0-2.273,18L8.326,38.548a.545.545,0,0,0,.137.541A.534.534,0,0,0,9,39.226l6.494-1.945a15.084,15.084,0,0,0,18.274-2.23,14.583,14.583,0,0,0,0-20.861A15.153,15.153,0,0,0,12.572,14.191ZM33,34.28a14.009,14.009,0,0,1-17.173,1.948.527.527,0,0,0-.281-.079.566.566,0,0,0-.253.061L9.661,37.9l1.71-5.516a.545.545,0,0,0,0-.548A13.429,13.429,0,0,1,13.33,14.967a14.071,14.071,0,0,1,19.666,0,13.5,13.5,0,0,1,0,19.317Z" transform="translate(-8.16 -9.868)" fill="#39b200" stroke="#39b225" stroke-width="1"/>
    </g>
  </g>
</svg>
