<svg id="Group_1927" data-name="Group 1927" xmlns="http://www.w3.org/2000/svg" width="31.647" height="31.647" viewBox="0 0 31.647 31.647">
  <g id="Group_1906" data-name="Group 1906">
    <g id="Group_1891" data-name="Group 1891">
      <circle id="Ellipse_9" data-name="Ellipse 9" cx="15.824" cy="15.824" r="15.824" fill="#159e38"/>
    </g>
  </g>
  <g id="_7830784_like_icon" data-name="7830784_like_icon" transform="translate(7 8)">
    <path id="Path_2232" data-name="Path 2232" d="M19.412,8.423a1.835,1.835,0,0,0-1.835-1.835H12.944a.184.184,0,0,1-.174-.241,6.374,6.374,0,0,0,.382-3.235C12.72,1.574,11.806,1.13,11.09,1.229a1.468,1.468,0,0,0-1.221,1.5A7.165,7.165,0,0,1,6.909,7.917a.367.367,0,0,0-.159.3v7.425a.367.367,0,0,0,.3.36c.262.051.5.1.724.147a12.705,12.705,0,0,0,3.015.346h4.771c1.436,0,1.652-.807,1.652-1.285a1.644,1.644,0,0,0-.17-.73,1.65,1.65,0,0,0,.734-2.2,1.653,1.653,0,0,0,.9-1.473,1.634,1.634,0,0,0-.2-.787A1.835,1.835,0,0,0,19.412,8.423Z" transform="translate(-2.488 -1.216)" fill="#fff"/>
    <path id="Path_2233" data-name="Path 2233" d="M3.161,10.386a.6.6,0,0,0-.6-.6H.6a.6.6,0,0,0-.6.6v6.622a.6.6,0,0,0,.6.6H2.559a.6.6,0,0,0,.6-.6Zm-.9,5.569a.452.452,0,1,1-.452-.452A.452.452,0,0,1,2.258,15.955Z" transform="translate(0 -2.729)" fill="#fff"/>
  </g>
</svg>
