<svg xmlns="http://www.w3.org/2000/svg" width="18.242" height="12" viewBox="0 0 18.242 12">
  <path id="Exclusion_3" data-name="Exclusion 3" d="M-4771.06-3695.13h-10.566v-1.188h10.566v1.188Zm.028-1.646h-10.624l-2.493-8.144a.894.894,0,0,1-.391.083,1.02,1.02,0,0,1-1.038-1,1,1,0,0,1,1.038-1,.994.994,0,0,1,1.036,1,.952.952,0,0,1-.616.888l5.015,3.319,2.719-3.508a1,1,0,0,1-.982-1,1.019,1.019,0,0,1,1.036-1,1,1,0,0,1,1.038,1,1.013,1.013,0,0,1-.981,1l2.635,3.371,5.044-3.318-2.436,8.3Zm2.661-8.359a1.019,1.019,0,0,1-1.036-1,1,1,0,0,1,1.036-1,1,1,0,0,1,1.036,1A1,1,0,0,1-4768.371-3705.135Z" transform="translate(4785.576 3707.13)" fill="#109e38"/>
</svg>
